<?xml version="1.0" encoding="UTF-8"?>
<!DOCTYPE svg PUBLIC "-//W3C//DTD SVG 1.1//EN" "http://www.w3.org/Graphics/SVG/1.1/DTD/svg11.dtd">
<!-- Creator: CorelDRAW 2018 (64-Bit) -->
<svg xmlns="http://www.w3.org/2000/svg" xml:space="preserve" width="127px" height="75px" version="1.1" style="shape-rendering:geometricPrecision; text-rendering:geometricPrecision; image-rendering:optimizeQuality; fill-rule:evenodd; clip-rule:evenodd"
viewBox="0 0 13.76 8.13"
 xmlns:xlink="http://www.w3.org/1999/xlink">
 <defs>
  <style type="text/css">
   <![CDATA[
    .fil1 {fill:#803660;fill-rule:nonzero}
    .fil0 {fill:#803660;fill-rule:nonzero}
   ]]>
  </style>
 </defs>
 <g id="Слой_x0020_1">
  <metadata id="CorelCorpID_0Corel-Layer"/>
  <g id="_2428455727776">
   <path class="fil0" d="M8.36 6.79c-0.14,-0.05 -0.24,-0.07 -0.4,-0.07 -0.11,0 -0.25,0.04 -0.25,0.18 0,0.26 0.76,0.09 0.76,0.68 0,0.39 -0.35,0.54 -0.71,0.54 -0.17,0 -0.34,-0.03 -0.5,-0.07l0.03 -0.35c0.14,0.07 0.28,0.11 0.43,0.11 0.11,0 0.29,-0.04 0.29,-0.2 0,-0.32 -0.76,-0.1 -0.76,-0.7 0,-0.35 0.32,-0.5 0.66,-0.5 0.2,0 0.34,0.03 0.48,0.06l-0.03 0.32zm2.04 1.29l0.44 0 0 -1.63 -0.44 0 0 1.63zm3.18 -1.29c-0.14,-0.05 -0.23,-0.07 -0.39,-0.07 -0.12,0 -0.26,0.04 -0.26,0.18 0,0.26 0.76,0.09 0.76,0.68 0,0.39 -0.35,0.54 -0.71,0.54 -0.16,0 -0.33,-0.03 -0.49,-0.07l0.02 -0.35c0.14,0.07 0.28,0.11 0.43,0.11 0.11,0 0.29,-0.04 0.29,-0.2 0,-0.32 -0.76,-0.1 -0.76,-0.7 0,-0.35 0.32,-0.5 0.66,-0.5 0.21,0 0.34,0.03 0.48,0.06l-0.03 0.32zm-4.04 0.39l0.62 -0.73 -0.51 0 -0.53 0.65 0 0 0 -1.53 -0.44 0.13 0 2.38 0.44 0 0 -0.79 0 0 0.57 0.79 0.55 0 -0.7 -0.9zm1.58 -1.48l0 2.38 0.44 0 0 -2.51 -0.44 0.13zm0.69 0l0 0 0 2.38 0.44 0 0 -2.51 -0.44 0.13zm-0.94 0.14c0,-0.14 -0.11,-0.25 -0.24,-0.25 -0.14,0 -0.25,0.11 -0.25,0.25 0,0.13 0.11,0.24 0.25,0.24 0.13,0 0.24,-0.11 0.24,-0.24zm-7.61 2.13c-0.34,0 -0.56,-0.28 -0.56,-0.69 0,-0.4 0.22,-0.68 0.56,-0.68 0.33,0 0.56,0.28 0.56,0.68 0,0.41 -0.23,0.69 -0.56,0.69zm0 -1.53c-0.57,0 -0.77,0.46 -0.77,0.84 0,0.39 0.2,0.85 0.77,0.85 0.57,0 0.77,-0.46 0.77,-0.85 0,-0.38 -0.2,-0.84 -0.77,-0.84zm1.14 0.3l0 -0.27 -0.18 0 0 1.61 0.2 0 0 -0.79 0 -0.01c0,-0.3 0.08,-0.65 0.48,-0.65l0.06 0 0 -0.01 0.01 -0.18 -0.02 0c-0.27,0 -0.46,0.1 -0.55,0.3zm1.9 1.22c-0.45,0 -0.5,-0.48 -0.5,-0.68 0,-0.21 0.05,-0.68 0.5,-0.68 0.34,0 0.5,0.34 0.5,0.68 0,0.34 -0.16,0.68 -0.5,0.68zm0.69 -2.3l-0.19 0.05 0 1c-0.04,-0.07 -0.19,-0.28 -0.53,-0.27 -0.57,0 -0.69,0.46 -0.69,0.84 0,0.52 0.27,0.84 0.69,0.84 0.25,0 0.42,-0.09 0.53,-0.29l0 0.25 0.19 0 0 -2.43 0 0.01zm-1.63 0l-0.19 0.05 0 2.37 0.2 0 0 -2.43 -0.01 0.01zm-5.15 0.81l-0.21 0 0 0.01c0.01,0.03 0.53,1.58 0.53,1.6l0 0 0.24 0c0,0 0.45,-1.39 0.46,-1.4l0.01 0c0.01,0.01 0.46,1.4 0.46,1.4l0.24 0 0.54 -1.61 -0.19 0c0,0 -0.46,1.4 -0.46,1.4l-0.02 0c0,0 -0.44,-1.4 -0.44,-1.4l-0.24 0c0,0 -0.46,1.4 -0.46,1.4l-0.02 0c0,0 -0.44,-1.4 -0.44,-1.4l0 0z"/>
   <path class="fil1" d="M10 2.82c0,0 0.79,-0.14 1.04,-0.76 0,0 4.57,0.94 1.87,3.37 0,0 1,-0.94 0.44,-1.69 0,0 0.32,0.93 -0.9,1.56 0,0 2.64,-1.88 -2.45,-2.48zm2.5 -0.34c0.32,0.16 0.55,0.32 0.68,0.42 0.05,-1.64 -1.12,-2.55 -1.12,-2.55 -0.03,0.1 -0.13,0.22 -0.28,0.27 -0.15,0.06 -0.23,0.23 -0.23,0.23 0.57,0.48 0.84,1.06 0.95,1.63zm-1.58 -0.3c0.07,-0.11 0.09,-0.18 0.09,-0.18 0.3,0.06 0.57,0.13 0.81,0.21 -0.5,-1.43 -1.43,-2.21 -1.43,-2.21 -0.02,0.07 -0.29,0.21 -0.48,0.29 -0.18,0.08 -0.14,0.43 -0.14,0.43 0.51,0.42 0.88,0.93 1.15,1.46zm1.91 1.58c-0.06,0.7 -0.48,1.45 -0.48,1.45 0.3,-0.45 0.5,-0.87 0.63,-1.27 -0.04,-0.06 -0.08,-0.12 -0.15,-0.18zm-0.05 -0.05c-0.07,-0.06 -0.15,-0.12 -0.24,-0.17 -0.07,0.76 -0.32,1.33 -0.32,1.33 0.14,-0.17 0.26,-0.44 0.26,-0.44 0,0.19 -0.16,0.57 -0.16,0.57 0.27,-0.43 0.4,-0.96 0.46,-1.29zm-1.58 1.47c-0.17,-0.09 -0.4,-0.18 -0.88,-0.56 0.36,0.28 0.97,0.46 0.97,0.46 -1.35,-0.69 -1.64,-1.31 -1.64,-1.31 -0.13,0 -0.21,0.08 -0.26,0.11 -0.05,0.03 -0.19,0.02 -0.19,0.02 0.51,0.83 2,1.28 2,1.28zm-0.61 -2.23c-0.45,-0.08 -0.77,-0.11 -0.77,-0.11 0.17,-0.04 0.33,-0.09 0.46,-0.15 -0.63,-0.46 -1.26,-0.58 -1.26,-0.58 0,0 -0.12,0.04 -0.14,0.24 -0.01,0.19 -0.16,0.22 -0.16,0.22 2.36,0.63 2.71,2.57 2.71,2.57 -0.16,-0.88 -0.5,-1.44 -0.5,-1.44 0.36,0.37 0.61,1.31 0.61,1.31 -0.08,-0.97 -0.49,-1.62 -0.95,-2.06zm0.71 0.14c0.34,1.04 0.34,1.93 0.34,1.93 0.25,-0.49 0.19,-1.61 0.19,-1.61 0.23,0.46 0.2,1.71 0.2,1.71 0.12,-0.66 0.13,-1.26 0.06,-1.79 -0.25,-0.1 -0.52,-0.18 -0.79,-0.24z"/>
  </g>
 </g>
</svg>
