<?xml version="1.0" encoding="UTF-8"?>
<!DOCTYPE svg PUBLIC "-//W3C//DTD SVG 1.1//EN" "http://www.w3.org/Graphics/SVG/1.1/DTD/svg11.dtd">
<!-- Creator: CorelDRAW 2019 (64-Bit) -->
<svg xmlns="http://www.w3.org/2000/svg" xml:space="preserve" width="67.3948mm" height="24.4099mm" version="1.1" style="shape-rendering:geometricPrecision; text-rendering:geometricPrecision; image-rendering:optimizeQuality; fill-rule:evenodd; clip-rule:evenodd"
viewBox="0 0 6739.48 2440.99"
 xmlns:xlink="http://www.w3.org/1999/xlink"
 xmlns:xodm="http://www.corel.com/coreldraw/odm/2003">
 <defs>
  <style type="text/css">
   <![CDATA[
    .fil6 {fill:#F7B82B}
    .fil4 {fill:#EF8F45}
    .fil3 {fill:#ED8256}
    .fil5 {fill:#D4505E}
    .fil7 {fill:#A34162}
    .fil2 {fill:#803660}
    .fil1 {fill:#2F1B34}
    .fil0 {fill:#562B72}
    .fil8 {fill:#803660;fill-rule:nonzero}
   ]]>
  </style>
 </defs>
 <g id="Слой_x0020_1">
  <metadata id="CorelCorpID_0Corel-Layer"/>
  <g id="_2095468937440">
   <g>
    <path class="fil0" d="M1026.49 208.78l-527.07 76.12c8.2,56.95 -9.69,117.1 -53.57,161.01 -43.89,43.91 -103.97,61.74 -161.01,53.49l-76.01 527.08 235.18 -425.28 776.46 619.29 -619.28 -776.44 425.3 -235.27z"/>
    <path class="fil0" d="M198.25 198.27c-62.74,62.81 -62.74,164.47 0,227.28 62.77,62.67 164.49,62.67 227.25,0 62.76,-62.81 62.76,-164.47 0,-227.28 -62.76,-62.81 -164.48,-62.81 -227.25,0z"/>
    <path class="fil1" d="M368.47 1116.83l75.46 -407.58 -223.71 374.98c37.06,27.81 61.07,71.99 61.07,121.89 0,49.9 -24.01,94.08 -61.07,121.89l214.61 384.17 -66.36 -416.77 852.01 -74.91 -852.01 -103.67z"/>
    <path class="fil1" d="M129.07 1077.05c-71.3,0 -129.08,57.75 -129.08,129.07 0,71.33 57.78,129.08 129.08,129.08 71.28,0 129.06,-57.75 129.06,-129.08 0,-71.32 -57.78,-129.07 -129.06,-129.07z"/>
    <path class="fil2" d="M1206.12 281.31c-49.9,0 -94.14,-23.96 -121.89,-61.08l-375.04 223.68 407.64 -75.45 103.65 852.04 74.92 -852.04 416.77 66.4 -384.16 -214.63c-27.76,37.12 -72.04,61.08 -121.89,61.08z"/>
    <path class="fil2" d="M1206.12 0c-71.3,0 -129.12,57.75 -129.12,129.08 0,71.32 57.82,129.07 129.12,129.07 71.28,0 129.07,-57.75 129.07,-129.07 0,-71.33 -57.79,-129.08 -129.07,-129.08z"/>
    <path class="fil3" d="M1220.47 1220.49l619.26 776.45 -425.24 235.13 527.02 -75.98c-8.17,-57.08 9.68,-117.1 53.56,-161.01 43.89,-43.91 103.97,-61.74 161.05,-53.49l76.01 -527.08 -235.22 425.28 -776.44 -619.3z"/>
    <path class="fil3" d="M2015.46 2015.44c-62.74,62.81 -62.74,164.47 0,227.28 62.74,62.67 164.48,62.67 227.21,0 62.74,-62.81 62.74,-164.47 0,-227.28 -62.73,-62.68 -164.47,-62.68 -227.21,0z"/>
    <path class="fil4" d="M1220.48 1220.5l-74.96 852.02 -416.77 -66.4 384.17 214.64c27.77,-37.13 72.04,-61.08 121.89,-61.08 49.9,0 94.17,23.95 121.93,61.08l375.03 -223.82 -407.64 75.58 -103.65 -852.02z"/>
    <path class="fil4" d="M1234.85 2182.84c-71.33,0 -129.12,57.75 -129.12,129.07 0,71.33 57.79,129.08 129.12,129.08 71.25,0 129.07,-57.75 129.07,-129.08 0,-71.32 -57.82,-129.07 -129.07,-129.07z"/>
    <path class="fil5" d="M2220.7 1112.98l-214.62 -384.17 66.37 416.77 -851.97 74.92 851.97 103.65 -75.46 407.59 223.71 -374.98c-37.05,-27.82 -61.02,-71.99 -61.02,-121.9 0,-49.9 23.97,-94.21 61.02,-121.88z"/>
    <path class="fil5" d="M2311.87 1105.79c-71.26,0 -129.08,57.75 -129.08,129.08 0,71.32 57.82,129.07 129.08,129.07 71.28,0 129.1,-57.75 129.1,-129.07 0,-71.33 -57.82,-129.08 -129.1,-129.08z"/>
    <path class="fil6" d="M444.01 1839.79l-235.18 -425.28 76.01 527.08c57.04,-8.25 117.12,9.58 161.01,53.49 43.88,43.91 61.77,103.93 53.57,161.01l527.07 75.98 -425.3 -235.13 619.28 -776.45 -776.46 619.3z"/>
    <path class="fil6" d="M198.25 2015.44c-62.74,62.81 -62.74,164.47 0,227.28 62.74,62.67 164.49,62.67 227.25,0 62.76,-62.81 62.76,-164.47 0,-227.28 -62.76,-62.68 -164.51,-62.68 -227.25,0z"/>
    <path class="fil7" d="M1995.07 445.91c-43.88,-43.91 -61.73,-104.06 -53.56,-161.01l-527.02 -76.12 425.24 235.27 -619.26 776.44 776.44 -619.29 235.22 425.28 -76.01 -527.08c-57.08,8.25 -117.16,-9.58 -161.05,-53.49z"/>
    <path class="fil7" d="M2015.46 198.27c-62.78,62.81 -62.78,164.47 0,227.28 62.74,62.67 164.48,62.67 227.21,0 62.74,-62.81 62.74,-164.47 0,-227.28 -62.73,-62.81 -164.47,-62.81 -227.21,0z"/>
   </g>
   <polygon class="fil8" points="3448.41,497.87 3448.41,829.08 3385.32,829.08 3385.32,645.07 3301.21,829.08 3259.15,829.08 3175.03,645.07 3175.03,829.08 3111.94,829.08 3111.94,497.87 3167.14,497.87 3280.18,742.33 3393.21,497.87 "/>
   <path id="1" class="fil8" d="M3558.81 708.16c0,19.98 5.78,35.93 17.35,47.84 11.57,11.92 25.94,17.88 43.11,17.88 17.17,0 31.54,-5.96 43.11,-17.88 11.57,-11.91 17.35,-27.86 17.35,-47.84 0,-19.98 -5.78,-35.92 -17.35,-47.84 -11.57,-11.92 -25.94,-17.87 -43.11,-17.87 -17.17,0 -31.54,5.95 -43.11,17.87 -11.57,11.92 -17.35,27.86 -17.35,47.84zm181.38 0c0,17.18 -3.24,33.21 -9.73,48.11 -6.48,14.89 -15.24,27.95 -26.28,39.16 -11.05,11.22 -23.84,20.07 -38.38,26.55 -14.55,6.49 -30.06,9.73 -46.53,9.73 -16.47,0 -31.98,-3.24 -46.53,-9.73 -14.54,-6.48 -27.34,-15.33 -38.38,-26.55 -11.04,-11.21 -19.8,-24.27 -26.28,-39.16 -6.49,-14.9 -9.73,-30.93 -9.73,-48.11 0,-17.17 3.24,-33.21 9.73,-48.1 6.48,-14.9 15.24,-27.95 26.28,-39.17 11.04,-11.21 23.84,-20.06 38.38,-26.55 14.55,-6.48 30.06,-9.72 46.53,-9.72 16.47,0 31.98,3.24 46.53,9.72 14.54,6.49 27.33,15.34 38.38,26.55 11.04,11.22 19.8,24.27 26.28,39.17 6.49,14.89 9.73,30.93 9.73,48.1z"/>
   <path id="2" class="fil8" d="M3984.65 587.24l0 241.84 -60.46 0 0 -184.01 -65.72 0 -7.88 105.15c-2.1,26.29 -10.17,46.44 -24.18,60.46 -14.02,14.02 -33.13,21.03 -57.31,21.03 -2.8,0 -5.26,-0.09 -7.36,-0.26 -2.1,-0.18 -4.03,-0.44 -5.78,-0.79 -1.76,-0.35 -3.51,-0.88 -5.26,-1.58l0 -49.94 7.89 0c10.51,0 18.48,-2.81 23.92,-8.42 5.43,-5.6 8.85,-15.07 10.25,-28.39l13.14 -155.09 178.75 0z"/>
   <path id="3" class="fil8" d="M4089.79 708.16c0,19.98 5.78,35.93 17.35,47.84 11.57,11.92 25.94,17.88 43.11,17.88 17.17,0 31.54,-5.96 43.11,-17.88 11.57,-11.91 17.35,-27.86 17.35,-47.84 0,-19.98 -5.78,-35.92 -17.35,-47.84 -11.57,-11.92 -25.94,-17.87 -43.11,-17.87 -17.17,0 -31.54,5.95 -43.11,17.87 -11.57,11.92 -17.35,27.86 -17.35,47.84zm181.38 0c0,17.18 -3.24,33.21 -9.73,48.11 -6.48,14.89 -15.24,27.95 -26.28,39.16 -11.05,11.22 -23.84,20.07 -38.38,26.55 -14.55,6.49 -30.06,9.73 -46.53,9.73 -16.47,0 -31.98,-3.24 -46.53,-9.73 -14.54,-6.48 -27.34,-15.33 -38.38,-26.55 -11.04,-11.21 -19.8,-24.27 -26.28,-39.16 -6.49,-14.9 -9.73,-30.93 -9.73,-48.11 0,-17.17 3.24,-33.21 9.73,-48.1 6.48,-14.9 15.24,-27.95 26.28,-39.17 11.04,-11.21 23.84,-20.06 38.38,-26.55 14.55,-6.48 30.06,-9.72 46.53,-9.72 16.47,0 31.98,3.24 46.53,9.72 14.54,6.49 27.33,15.34 38.38,26.55 11.04,11.22 19.8,24.27 26.28,39.17 6.49,14.89 9.73,30.93 9.73,48.1z"/>
   <path id="4" class="fil8" d="M4549.8 771.25l0 110.4 -60.45 0 0 -52.57 -141.95 0 0 52.57 -60.46 0 0 -110.4 18.4 0c4.21,-2.1 8.24,-5.08 12.09,-8.94 3.16,-3.15 6.14,-7.18 8.94,-12.09 2.8,-4.91 4.56,-11.04 5.26,-18.4l15.77 -144.58 170.86 0 0 184.01 31.54 0zm-160.34 -39.43c-0.7,7.36 -2.11,13.49 -4.21,18.4 -2.1,4.91 -4.2,8.94 -6.31,12.09 -2.45,3.86 -5.08,6.84 -7.88,8.94l86.74 0 0 -126.18 -57.83 0 -10.51 86.75z"/>
   <path id="5" class="fil8" d="M4862.61 587.24l0 241.84 -60.46 0 0 -241.84 60.46 0zm-168.23 78.86c11.92,0 22.96,2.19 33.12,6.58 10.16,4.38 19.01,10.25 26.55,17.61 7.54,7.36 13.49,15.94 17.87,25.76 4.39,9.81 6.58,20.33 6.58,31.54 0,11.22 -2.19,21.73 -6.58,31.55 -4.38,9.81 -10.33,18.4 -17.87,25.76 -7.54,7.36 -16.39,13.23 -26.55,17.61 -10.16,4.38 -21.2,6.57 -33.12,6.57l-107.77 0 0 -241.84 60.45 0 0 78.86 47.32 0zm-7.89 110.41c9.12,0 16.65,-2.81 22.61,-8.41 5.96,-5.61 8.94,-12.45 8.94,-20.51 0,-8.06 -2.98,-14.89 -8.94,-20.5 -5.96,-5.61 -13.49,-8.41 -22.61,-8.41l-39.43 0 0 57.83 39.43 0z"/>
   <path id="6" class="fil8" d="M5135.99 755.48c-3.15,9.11 -7.97,18.22 -14.45,27.34 -6.49,9.11 -14.37,17.26 -23.66,24.44 -9.29,7.19 -19.8,13.06 -31.54,17.61 -11.75,4.56 -24.45,6.84 -38.12,6.84 -16.47,0 -31.98,-3.24 -46.53,-9.73 -14.54,-6.48 -27.34,-15.33 -38.38,-26.55 -11.04,-11.21 -19.8,-24.27 -26.28,-39.16 -6.49,-14.9 -9.73,-30.93 -9.73,-48.11 0,-17.17 3.24,-33.21 9.73,-48.1 6.48,-14.9 15.24,-27.95 26.28,-39.17 11.04,-11.21 23.84,-20.06 38.38,-26.55 14.55,-6.48 30.06,-9.72 46.53,-9.72 15.77,0 30.67,2.97 44.69,8.93 14.02,5.96 26.28,14.37 36.8,25.24 10.51,10.86 18.84,23.92 24.97,39.16 6.13,15.25 9.2,31.99 9.2,50.21 0,2.81 -0.17,5.52 -0.53,8.15 -0.35,2.63 -0.7,5.17 -1.05,7.62 -0.35,2.81 -0.7,5.44 -1.05,7.89l-168.23 0c2.8,11.92 8.76,21.91 17.87,29.97 9.12,8.06 21.56,12.09 37.33,12.09 8.06,0 14.81,-0.88 20.24,-2.63 5.43,-1.75 10.08,-3.86 13.93,-6.31 4.21,-2.8 7.71,-5.96 10.52,-9.46l63.08 0zm-107.77 -113.03c-15.77,0 -28.65,4.55 -38.64,13.66 -9.99,9.12 -16.39,20.33 -19.19,33.65l115.66 0c-2.8,-13.32 -9.2,-24.53 -19.19,-33.65 -9.99,-9.11 -22.87,-13.66 -38.64,-13.66z"/>
   <polygon id="7" class="fil8" points="3324.86,1112.97 3324.86,1354.81 3264.4,1354.81 3264.4,1170.8 3167.14,1170.8 3167.14,1354.81 3106.69,1354.81 3106.69,1112.97 "/>
   <path id="8" class="fil8" d="M3506.24 1110.35c15.07,0 29.44,3.06 43.11,9.2 13.67,6.13 25.67,14.72 36.01,25.76 10.34,11.04 18.58,24.09 24.71,39.16 6.14,15.07 9.2,31.55 9.2,49.42 0,17.88 -3.06,34.35 -9.2,49.42 -6.13,15.07 -14.37,28.13 -24.71,39.17 -10.34,11.04 -22.34,19.62 -36.01,25.76 -13.67,6.13 -28.04,9.2 -43.11,9.2 -10.16,0 -19.01,-1.23 -26.55,-3.68 -7.53,-2.45 -14.1,-5.08 -19.71,-7.89 -6.31,-3.5 -11.92,-7.53 -16.83,-12.09l0 105.15 -60.45 0 0 -325.96 44.68 0 10.52 23.66c5.25,-4.9 11.39,-9.29 18.4,-13.14 5.96,-3.16 13.14,-6.13 21.55,-8.94 8.41,-2.8 17.88,-4.2 28.39,-4.2zm-68.34 123.54c0,19.98 5.78,35.93 17.35,47.84 11.56,11.92 25.93,17.88 43.11,17.88 17.17,0 31.54,-5.96 43.11,-17.88 11.56,-11.91 17.34,-27.86 17.34,-47.84 0,-19.98 -5.78,-35.92 -17.34,-47.84 -11.57,-11.92 -25.94,-17.87 -43.11,-17.87 -17.18,0 -31.55,5.95 -43.11,17.87 -11.57,11.92 -17.35,27.86 -17.35,47.84z"/>
   <path id="9" class="fil8" d="M3711.28 1233.89c0,19.98 5.78,35.93 17.35,47.84 11.57,11.92 25.94,17.88 43.11,17.88 17.17,0 31.54,-5.96 43.11,-17.88 11.57,-11.91 17.35,-27.86 17.35,-47.84 0,-19.98 -5.78,-35.92 -17.35,-47.84 -11.57,-11.92 -25.94,-17.87 -43.11,-17.87 -17.17,0 -31.54,5.95 -43.11,17.87 -11.57,11.92 -17.35,27.86 -17.35,47.84zm181.38 0c0,17.18 -3.24,33.21 -9.73,48.11 -6.48,14.89 -15.24,27.95 -26.28,39.16 -11.05,11.22 -23.84,20.07 -38.38,26.55 -14.55,6.49 -30.06,9.73 -46.53,9.73 -16.47,0 -31.98,-3.24 -46.53,-9.73 -14.54,-6.48 -27.34,-15.33 -38.38,-26.55 -11.04,-11.21 -19.8,-24.27 -26.28,-39.16 -6.49,-14.9 -9.73,-30.93 -9.73,-48.11 0,-17.17 3.24,-33.21 9.73,-48.1 6.48,-14.9 15.24,-27.95 26.28,-39.17 11.04,-11.21 23.84,-20.06 38.38,-26.55 14.55,-6.48 30.06,-9.72 46.53,-9.72 16.47,0 31.98,3.24 46.53,9.72 14.54,6.49 27.33,15.34 38.38,26.55 11.04,11.22 19.8,24.27 26.28,39.17 6.49,14.89 9.73,30.93 9.73,48.1z"/>
   <path id="10" class="fil8" d="M4076.66 1023.6l60.46 0 0 102.52c4.21,-2.81 8.94,-5.44 14.2,-7.89 4.55,-1.75 9.81,-3.5 15.77,-5.26 5.96,-1.75 12.62,-2.62 19.98,-2.62 13.67,0 26.72,2.89 39.16,8.67 12.45,5.78 23.4,14.02 32.86,24.71 9.47,10.69 16.91,23.66 22.35,38.9 5.43,15.25 8.14,32.34 8.14,51.26 0,18.93 -2.71,36.01 -8.14,51.26 -5.44,15.25 -12.88,28.21 -22.35,38.9 -9.46,10.69 -20.41,18.93 -32.86,24.71 -12.44,5.79 -25.49,8.68 -39.16,8.68 -7.36,0 -14.02,-0.79 -19.98,-2.37 -5.96,-1.57 -11.22,-3.41 -15.77,-5.52 -5.26,-2.1 -9.99,-4.73 -14.2,-7.88l0 97.26 -60.46 0 0 -97.26c-4.2,3.15 -8.93,5.78 -14.19,7.88 -4.56,2.11 -9.9,3.95 -16.04,5.52 -6.13,1.58 -12.7,2.37 -19.71,2.37 -13.67,0 -26.73,-2.89 -39.17,-8.68 -12.44,-5.78 -23.39,-14.02 -32.86,-24.71 -9.46,-10.69 -16.91,-23.65 -22.34,-38.9 -5.43,-15.25 -8.15,-32.33 -8.15,-51.26 0,-18.92 2.72,-36.01 8.15,-51.26 5.43,-15.24 12.88,-28.21 22.34,-38.9 9.47,-10.69 20.42,-18.93 32.86,-24.71 12.44,-5.78 25.5,-8.67 39.17,-8.67 7.01,0 13.58,0.87 19.71,2.62 6.14,1.76 11.48,3.51 16.04,5.26 5.26,2.45 9.99,5.08 14.19,7.89l0 -102.52zm60.46 260.24c3.51,3.15 7.19,5.78 11.04,7.88 3.51,2.11 7.63,3.95 12.36,5.52 4.73,1.58 10.07,2.37 16.03,2.37 14.72,0 27.17,-5.7 37.33,-17.09 10.16,-11.39 15.25,-27.6 15.25,-48.63 0,-21.03 -5.09,-37.24 -15.25,-48.63 -10.16,-11.39 -22.61,-17.08 -37.33,-17.08 -5.96,0 -11.3,0.87 -16.03,2.62 -4.73,1.76 -8.85,3.51 -12.36,5.26 -3.85,2.46 -7.53,5.08 -11.04,7.89l0 99.89zm-60.46 -99.89c-3.5,-2.81 -7.18,-5.43 -11.04,-7.89 -3.5,-1.75 -7.62,-3.5 -12.35,-5.26 -4.73,-1.75 -10.08,-2.62 -16.04,-2.62 -14.72,0 -27.16,5.69 -37.32,17.08 -10.17,11.39 -15.25,27.6 -15.25,48.63 0,21.03 5.08,37.24 15.25,48.63 10.16,11.39 22.6,17.09 37.32,17.09 5.61,0 10.87,-0.79 15.78,-2.37 4.9,-1.57 9.11,-3.41 12.61,-5.52 3.86,-2.1 7.54,-4.73 11.04,-7.88l0 -99.89z"/>
   <path id="11" class="fil8" d="M4549.82 1281.21c-3.15,9.11 -7.97,18.22 -14.45,27.34 -6.49,9.11 -14.37,17.26 -23.66,24.44 -9.29,7.19 -19.8,13.06 -31.54,17.61 -11.75,4.56 -24.45,6.84 -38.12,6.84 -16.47,0 -31.98,-3.24 -46.53,-9.73 -14.54,-6.48 -27.34,-15.33 -38.38,-26.55 -11.04,-11.21 -19.8,-24.27 -26.28,-39.16 -6.49,-14.9 -9.73,-30.93 -9.73,-48.11 0,-17.17 3.24,-33.21 9.73,-48.1 6.48,-14.9 15.24,-27.95 26.28,-39.17 11.04,-11.21 23.84,-20.06 38.38,-26.55 14.55,-6.48 30.06,-9.72 46.53,-9.72 15.77,0 30.67,2.97 44.69,8.93 14.02,5.96 26.28,14.37 36.8,25.24 10.51,10.86 18.84,23.92 24.97,39.16 6.13,15.25 9.2,31.99 9.2,50.21 0,2.81 -0.17,5.52 -0.53,8.15 -0.35,2.63 -0.7,5.17 -1.05,7.62 -0.35,2.81 -0.7,5.44 -1.05,7.89l-168.23 0c2.8,11.92 8.76,21.91 17.87,29.97 9.12,8.06 21.56,12.09 37.33,12.09 8.06,0 14.81,-0.88 20.24,-2.63 5.43,-1.75 10.08,-3.86 13.93,-6.31 4.21,-2.8 7.71,-5.96 10.52,-9.46l63.08 0zm-107.77 -113.03c-15.77,0 -28.65,4.55 -38.64,13.66 -9.99,9.12 -16.39,20.33 -19.19,33.65l115.66 0c-2.8,-13.32 -9.2,-24.53 -19.19,-33.65 -9.99,-9.11 -22.87,-13.66 -38.64,-13.66z"/>
   <path id="12" class="fil8" d="M4823.2 1265.44c-2.8,11.91 -7.53,23.39 -14.19,34.43 -6.66,11.04 -14.9,20.86 -24.71,29.44 -9.82,8.59 -21.03,15.42 -33.65,20.51 -12.62,5.08 -26.11,7.62 -40.48,7.62 -16.47,0 -31.98,-3.24 -46.53,-9.73 -14.54,-6.48 -27.34,-15.33 -38.38,-26.55 -11.04,-11.21 -19.8,-24.27 -26.28,-39.16 -6.49,-14.9 -9.73,-30.93 -9.73,-48.11 0,-17.17 3.24,-33.21 9.73,-48.1 6.48,-14.9 15.24,-27.95 26.28,-39.17 11.04,-11.21 23.84,-20.06 38.38,-26.55 14.55,-6.48 30.06,-9.72 46.53,-9.72 14.37,0 27.86,2.54 40.48,7.62 12.62,5.08 23.83,11.92 33.65,20.5 9.81,8.59 18.05,18.4 24.71,29.44 6.66,11.04 11.39,22.52 14.19,34.44l-60.46 0c-2.8,-6.31 -6.66,-11.92 -11.56,-16.83 -4.21,-4.2 -9.64,-8.14 -16.3,-11.82 -6.66,-3.68 -14.9,-5.52 -24.71,-5.52 -17.17,0 -31.54,5.95 -43.11,17.87 -11.57,11.92 -17.35,27.86 -17.35,47.84 0,19.98 5.78,35.93 17.35,47.84 11.57,11.92 25.94,17.88 43.11,17.88 9.81,0 18.05,-1.75 24.71,-5.26 6.66,-3.5 12.09,-7.36 16.3,-11.57 4.9,-4.9 8.76,-10.68 11.56,-17.34l60.46 0z"/>
   <path id="13" class="fil8" d="M5080.81 1265.44c-2.8,11.91 -7.53,23.39 -14.19,34.43 -6.66,11.04 -14.9,20.86 -24.71,29.44 -9.82,8.59 -21.03,15.42 -33.65,20.51 -12.62,5.08 -26.11,7.62 -40.48,7.62 -16.47,0 -31.98,-3.24 -46.53,-9.73 -14.54,-6.48 -27.34,-15.33 -38.38,-26.55 -11.04,-11.21 -19.8,-24.27 -26.28,-39.16 -6.49,-14.9 -9.73,-30.93 -9.73,-48.11 0,-17.17 3.24,-33.21 9.73,-48.1 6.48,-14.9 15.24,-27.95 26.28,-39.17 11.04,-11.21 23.84,-20.06 38.38,-26.55 14.55,-6.48 30.06,-9.72 46.53,-9.72 14.37,0 27.86,2.54 40.48,7.62 12.62,5.08 23.83,11.92 33.65,20.5 9.81,8.59 18.05,18.4 24.71,29.44 6.66,11.04 11.39,22.52 14.19,34.44l-60.46 0c-2.8,-6.31 -6.66,-11.92 -11.56,-16.83 -4.21,-4.2 -9.64,-8.14 -16.3,-11.82 -6.66,-3.68 -14.9,-5.52 -24.71,-5.52 -17.17,0 -31.54,5.95 -43.11,17.87 -11.57,11.92 -17.35,27.86 -17.35,47.84 0,19.98 5.78,35.93 17.35,47.84 11.57,11.92 25.94,17.88 43.11,17.88 9.81,0 18.05,-1.75 24.71,-5.26 6.66,-3.5 12.09,-7.36 16.3,-11.57 4.9,-4.9 8.76,-10.68 11.56,-17.34l60.46 0z"/>
   <polygon id="14" class="fil8" points="5343.67,1112.97 5343.67,1354.81 5283.21,1354.81 5283.21,1202.35 5180.7,1354.81 5122.87,1354.81 5122.87,1112.97 5183.32,1112.97 5183.32,1265.44 5285.84,1112.97 "/>
   <path id="15" class="fil8" d="M5448.82 1233.89c0,19.98 5.78,35.93 17.35,47.84 11.57,11.92 25.94,17.88 43.11,17.88 17.17,0 31.54,-5.96 43.11,-17.88 11.57,-11.91 17.35,-27.86 17.35,-47.84 0,-19.98 -5.78,-35.92 -17.35,-47.84 -11.57,-11.92 -25.94,-17.87 -43.11,-17.87 -17.17,0 -31.54,5.95 -43.11,17.87 -11.57,11.92 -17.35,27.86 -17.35,47.84zm181.38 0c0,17.18 -3.24,33.21 -9.73,48.11 -6.48,14.89 -15.24,27.95 -26.28,39.16 -11.05,11.22 -23.84,20.07 -38.38,26.55 -14.55,6.49 -30.06,9.73 -46.53,9.73 -16.47,0 -31.98,-3.24 -46.53,-9.73 -14.54,-6.48 -27.34,-15.33 -38.38,-26.55 -11.04,-11.21 -19.8,-24.27 -26.28,-39.16 -6.49,-14.9 -9.73,-30.93 -9.73,-48.11 0,-17.17 3.24,-33.21 9.73,-48.1 6.48,-14.9 15.24,-27.95 26.28,-39.17 11.04,-11.21 23.84,-20.06 38.38,-26.55 14.55,-6.48 30.06,-9.72 46.53,-9.72 16.47,0 31.98,3.24 46.53,9.72 14.54,6.49 27.33,15.34 38.38,26.55 11.04,11.22 19.8,24.27 26.28,39.17 6.49,14.89 9.73,30.93 9.73,48.1z"/>
   <polygon id="16" class="fil8" points="5893.06,1112.97 5893.06,1354.81 5832.6,1354.81 5832.6,1260.18 5735.34,1260.18 5735.34,1354.81 5674.89,1354.81 5674.89,1112.97 5735.34,1112.97 5735.34,1202.35 5832.6,1202.35 5832.6,1112.97 "/>
   <path id="17" class="fil8" d="M6050.78 1110.35c13.67,0 26.29,2.36 37.86,7.09 11.56,4.73 21.55,11.31 29.96,19.72 8.41,8.41 14.99,18.4 19.72,29.96 4.73,11.57 7.1,24.19 7.1,37.86l0 149.83 -44.69 0 -10.52 -23.66c-5.6,4.91 -11.74,9.29 -18.4,13.15 -5.96,3.5 -13.14,6.57 -21.55,9.2 -8.41,2.62 -17.88,3.94 -28.39,3.94 -26.29,0 -46.44,-6.4 -60.46,-19.19 -14.02,-12.79 -21.03,-29.18 -21.03,-49.16 0,-11.91 2.37,-22.87 7.1,-32.85 4.73,-9.99 12.7,-18.58 23.92,-25.77 11.21,-7.18 26.02,-12.79 44.42,-16.82 18.4,-4.03 41.45,-6.04 69.14,-6.04 0,-13.32 -3.6,-23.66 -10.78,-31.02 -7.19,-7.36 -16.74,-11.04 -28.65,-11.04 -8.06,0 -14.46,1.4 -19.19,4.2 -4.73,2.81 -8.5,5.79 -11.31,8.94 -3.15,3.86 -5.25,8.24 -6.3,13.14l-60.46 0c1.4,-11.21 4.64,-21.73 9.72,-31.54 5.08,-9.81 12.01,-18.4 20.77,-25.76 8.76,-7.36 19.19,-13.23 31.28,-17.61 12.09,-4.38 25.67,-6.57 40.74,-6.57zm-18.4 199.77c15.78,0 28.48,-4.64 38.12,-13.93 9.64,-9.29 14.46,-21.29 14.46,-36.01l0 -10.52c-17.88,0 -32.25,0.79 -43.11,2.37 -10.87,1.58 -19.37,3.86 -25.5,6.83 -6.13,2.98 -10.25,6.58 -12.36,10.78 -2.1,4.21 -3.15,8.94 -3.15,14.2 0,6.66 2.98,12.7 8.94,18.13 5.96,5.44 13.49,8.15 22.6,8.15z"/>
   <path id="18" class="fil8" d="M6405.65 1112.97l0 241.84 -60.46 0 0 -184.01 -65.72 0 -7.88 105.15c-2.1,26.29 -10.17,46.44 -24.18,60.46 -14.02,14.02 -33.13,21.03 -57.31,21.03 -2.8,0 -5.26,-0.09 -7.36,-0.26 -2.1,-0.18 -4.03,-0.44 -5.78,-0.79 -1.76,-0.35 -3.51,-0.88 -5.26,-1.58l0 -49.94 7.89 0c10.51,0 18.48,-2.81 23.92,-8.42 5.43,-5.6 8.85,-15.07 10.25,-28.39l13.14 -155.09 178.75 0z"/>
   <path id="19" class="fil8" d="M6739.48 1112.97l0 241.84 -60.46 0 0 -241.84 60.46 0zm-168.23 78.86c11.92,0 22.96,2.19 33.12,6.58 10.16,4.38 19.01,10.25 26.55,17.61 7.54,7.36 13.49,15.94 17.87,25.76 4.39,9.81 6.58,20.33 6.58,31.54 0,11.22 -2.19,21.73 -6.58,31.55 -4.38,9.81 -10.33,18.4 -17.87,25.76 -7.54,7.36 -16.39,13.23 -26.55,17.61 -10.16,4.38 -21.2,6.57 -33.12,6.57l-107.77 0 0 -241.84 60.45 0 0 78.86 47.32 0zm-7.89 110.41c9.12,0 16.65,-2.81 22.61,-8.41 5.96,-5.61 8.94,-12.45 8.94,-20.51 0,-8.06 -2.98,-14.89 -8.94,-20.5 -5.96,-5.61 -13.49,-8.41 -22.61,-8.41l-39.43 0 0 57.83 39.43 0z"/>
   <polygon id="20" class="fil8" points="3658.7,1772.77 3500.98,1772.77 3500.98,1720.19 3658.7,1720.19 "/>
   <path id="21" class="fil8" d="M3905.79 1638.7l0 241.84 -60.46 0 0 -184.01 -65.72 0 -7.88 105.15c-2.1,26.29 -10.17,46.44 -24.18,60.46 -14.02,14.02 -33.13,21.03 -57.31,21.03 -2.8,0 -5.26,-0.09 -7.36,-0.26 -2.1,-0.18 -4.03,-0.44 -5.78,-0.79 -1.76,-0.35 -3.51,-0.88 -5.26,-1.58l0 -49.94 7.89 0c10.51,0 18.48,-2.81 23.92,-8.42 5.43,-5.6 8.85,-15.07 10.25,-28.39l13.14 -155.09 178.75 0z"/>
   <polygon id="22" class="fil8" points="4184.42,1638.7 4184.42,1880.54 4123.96,1880.54 4123.96,1728.08 4021.45,1880.54 3963.62,1880.54 3963.62,1638.7 4024.07,1638.7 4024.07,1791.17 4126.59,1638.7 "/>
   <polygon id="23" class="fil8" points="4486.72,1822.71 4486.72,1933.11 4426.26,1933.11 4426.26,1880.54 4242.26,1880.54 4242.26,1638.7 4302.71,1638.7 4302.71,1822.71 4394.72,1822.71 4394.72,1638.7 4455.18,1638.7 4455.18,1822.71 "/>
   <path id="24" class="fil8" d="M4736.44 1806.94c-3.15,9.11 -7.97,18.22 -14.45,27.34 -6.49,9.11 -14.37,17.26 -23.66,24.44 -9.29,7.19 -19.8,13.06 -31.54,17.61 -11.75,4.56 -24.45,6.84 -38.12,6.84 -16.47,0 -31.98,-3.24 -46.53,-9.73 -14.54,-6.48 -27.34,-15.33 -38.38,-26.55 -11.04,-11.21 -19.8,-24.27 -26.28,-39.16 -6.49,-14.9 -9.73,-30.93 -9.73,-48.11 0,-17.17 3.24,-33.21 9.73,-48.1 6.48,-14.9 15.24,-27.95 26.28,-39.17 11.04,-11.21 23.84,-20.06 38.38,-26.55 14.55,-6.48 30.06,-9.72 46.53,-9.72 15.77,0 30.67,2.97 44.69,8.93 14.02,5.96 26.28,14.37 36.8,25.24 10.51,10.86 18.84,23.92 24.97,39.16 6.13,15.25 9.2,31.99 9.2,50.21 0,2.81 -0.17,5.52 -0.53,8.15 -0.35,2.63 -0.7,5.17 -1.05,7.62 -0.35,2.81 -0.7,5.44 -1.05,7.89l-168.23 0c2.8,11.92 8.76,21.91 17.87,29.97 9.12,8.06 21.56,12.09 37.33,12.09 8.06,0 14.81,-0.88 20.24,-2.63 5.43,-1.75 10.08,-3.86 13.93,-6.31 4.21,-2.8 7.71,-5.96 10.52,-9.46l63.08 0zm-107.77 -113.03c-15.77,0 -28.65,4.55 -38.64,13.66 -9.99,9.12 -16.39,20.33 -19.19,33.65l115.66 0c-2.8,-13.32 -9.2,-24.53 -19.19,-33.65 -9.99,-9.11 -22.87,-13.66 -38.64,-13.66z"/>
   <path id="25" class="fil8" d="M4980.91 1638.7l0 241.84 -60.46 0 0 -78.86 -34.17 0 -49.95 78.86 -65.72 0 55.21 -86.75c-8.77,-4.2 -16.3,-9.81 -22.61,-16.82 -5.61,-5.96 -10.69,-13.58 -15.25,-22.87 -4.55,-9.29 -6.83,-20.59 -6.83,-33.91 0,-11.21 2.19,-21.73 6.57,-31.54 4.38,-9.82 10.43,-18.4 18.14,-25.76 7.71,-7.36 16.82,-13.23 27.34,-17.61 10.51,-4.39 22.08,-6.58 34.69,-6.58l113.04 0zm-107.78 52.58c-9.11,0 -16.65,2.8 -22.6,8.41 -5.96,5.61 -8.94,12.44 -8.94,20.5 0,8.06 2.98,14.9 8.94,20.51 5.95,5.6 13.49,8.41 22.6,8.41l49.95 0 0 -57.83 -49.95 0z"/>
   <polygon id="26" class="fil8" points="5343.66,1880.54 5225.37,1730.71 5225.37,1880.54 5162.28,1880.54 5162.28,1549.33 5225.37,1549.33 5225.37,1696.53 5335.77,1549.33 5409.38,1549.33 5285.83,1712.31 5417.26,1880.54 "/>
   <path id="27" class="fil8" d="M5561.84 1636.08c-26.29,1.4 -46.88,9.02 -61.78,22.86 -14.89,13.85 -22.34,30.76 -22.34,50.74 0,19.98 7.45,36.89 22.34,50.73 14.9,13.84 35.49,21.47 61.78,22.87l0 -147.2zm63.09 -57.83c23.13,1.4 43.81,5.69 62.03,12.88 18.23,7.18 33.65,16.56 46.27,28.12 12.61,11.57 22.25,25.06 28.91,40.48 6.66,15.42 9.99,32.07 9.99,49.95 0,17.87 -3.33,34.52 -9.99,49.94 -6.66,15.42 -16.3,28.92 -28.91,40.48 -12.62,11.57 -28.04,20.94 -46.27,28.13 -18.22,7.18 -38.9,11.48 -62.03,12.88l0 42.06 -63.09 0 0 -42.06c-23.13,-1.4 -43.81,-5.7 -62.04,-12.88 -18.22,-7.19 -33.65,-16.56 -46.26,-28.13 -12.62,-11.56 -22.26,-25.06 -28.92,-40.48 -6.66,-15.42 -9.99,-32.07 -9.99,-49.94 0,-17.88 3.33,-34.53 9.99,-49.95 6.66,-15.42 16.3,-28.91 28.92,-40.48 12.61,-11.56 28.04,-20.94 46.26,-28.12 18.23,-7.19 38.91,-11.48 62.04,-12.88l0 -31.55 63.09 0 0 31.55zm0 205.03c26.28,-1.4 46.87,-9.03 61.77,-22.87 14.89,-13.84 22.34,-30.75 22.34,-50.73 0,-19.98 -7.45,-36.89 -22.34,-50.74 -14.9,-13.84 -35.49,-21.46 -61.77,-22.86l0 147.2z"/>
   <path id="28" class="fil8" d="M6056.03 1549.33l-113.04 252.35c-6.31,14.37 -12.7,26.9 -19.19,37.59 -6.48,10.69 -13.49,19.45 -21.02,26.29 -7.54,6.83 -15.69,11.91 -24.45,15.24 -8.76,3.33 -18.75,5 -29.97,5 -8.06,0 -15.24,-0.88 -21.55,-2.63 -3.51,-0.7 -6.84,-1.58 -9.99,-2.63l0 -55.2c1.75,0.7 3.68,1.23 5.78,1.58 1.75,0.35 3.86,0.61 6.31,0.78 2.45,0.18 5.43,0.27 8.94,0.27 10.51,0 19.36,-2.89 26.55,-8.68 7.18,-5.78 12.35,-12.53 15.51,-20.24l5.25 -13.14 -107.77 -236.58 65.71 0 76.24 165.61 73.6 -165.61 63.09 0z"/>
   <polygon id="29" class="fil8" points="3175.03,1880.54 3111.94,1880.54 3111.94,1549.33 3175.03,1549.33 "/>
   <polygon id="30" class="fil8" points="3217.09,1549.33 3474.69,1549.33 3474.69,1609.79 3377.43,1609.79 3377.43,1880.54 3314.35,1880.54 3314.35,1609.79 3217.09,1609.79 "/>
  </g>
 </g>
</svg>
