<?xml version="1.0" encoding="UTF-8"?>
<!DOCTYPE svg PUBLIC "-//W3C//DTD SVG 1.1//EN" "http://www.w3.org/Graphics/SVG/1.1/DTD/svg11.dtd">
<!-- Creator: CorelDRAW 2018 (64-Bit) -->
<svg xmlns="http://www.w3.org/2000/svg" xml:space="preserve" width="271px" height="75px" version="1.1" style="shape-rendering:geometricPrecision; text-rendering:geometricPrecision; image-rendering:optimizeQuality; fill-rule:evenodd; clip-rule:evenodd"
viewBox="0 0 378.69 105.53"
 xmlns:xlink="http://www.w3.org/1999/xlink">
 <defs>
  <style type="text/css">
   <![CDATA[
    .fil3 {fill:#FEFEFE}
    .fil2 {fill:#005FA0}
    .fil1 {fill:#EF7F30;fill-rule:nonzero}
    .fil0 {fill:#005FA0;fill-rule:nonzero}
   ]]>
  </style>
 </defs>
 <g id="Слой_x0020_1">
  <metadata id="CorelCorpID_0Corel-Layer"/>
  <g id="_2428509017472">
   <g>
    <path class="fil0" d="M95.62 12.1l-0.96 0 0 7.94 -3.64 0 0 -18.59 3.64 0 0 8.23 0.85 -0.37 5.13 -7.86 4.14 0 -5.42 7.81 -1.43 1.01 1.49 1.03 6.19 8.74 -4.49 0 -5.5 -7.94z"/>
    <path class="fil0" d="M107.33 7.53c0.71,-0.32 1.55,-0.57 2.53,-0.76 0.97,-0.18 1.99,-0.28 3.05,-0.28 0.92,0 1.69,0.12 2.31,0.34 0.62,0.22 1.12,0.53 1.48,0.94 0.36,0.41 0.62,0.89 0.77,1.46 0.15,0.57 0.22,1.2 0.22,1.91 0,0.78 -0.02,1.57 -0.08,2.36 -0.05,0.78 -0.08,1.56 -0.09,2.32 -0.01,0.76 0.02,1.5 0.07,2.22 0.05,0.71 0.18,1.39 0.4,2.03l-2.82 0 -0.56 -1.83 -0.13 0c-0.36,0.55 -0.85,1.02 -1.47,1.42 -0.63,0.4 -1.45,0.6 -2.44,0.6 -0.62,0 -1.17,-0.1 -1.67,-0.28 -0.49,-0.19 -0.92,-0.45 -1.27,-0.8 -0.36,-0.35 -0.63,-0.75 -0.83,-1.22 -0.19,-0.47 -0.29,-1 -0.29,-1.58 0,-0.82 0.18,-1.5 0.54,-2.06 0.37,-0.56 0.89,-1.01 1.57,-1.36 0.68,-0.34 1.5,-0.58 2.45,-0.71 0.94,-0.14 2,-0.18 3.17,-0.12 0.12,-1 0.05,-1.71 -0.21,-2.14 -0.27,-0.43 -0.86,-0.65 -1.78,-0.65 -0.69,0 -1.42,0.07 -2.19,0.21 -0.77,0.14 -1.41,0.33 -1.9,0.56l-0.83 -2.58zm4.39 9.88c0.69,0 1.24,-0.15 1.64,-0.46 0.41,-0.31 0.71,-0.64 0.91,-1l0 -1.72c-0.55,-0.06 -1.08,-0.07 -1.58,-0.03 -0.51,0.03 -0.95,0.11 -1.34,0.24 -0.4,0.12 -0.7,0.3 -0.94,0.53 -0.23,0.23 -0.34,0.52 -0.34,0.87 0,0.5 0.15,0.89 0.44,1.16 0.29,0.28 0.69,0.41 1.21,0.41z"/>
    <path class="fil0" d="M121.97 14.54l0 -2.41 1.62 0c0.62,0 1.13,-0.13 1.53,-0.38 0.4,-0.24 0.6,-0.57 0.6,-0.98 0,-0.48 -0.18,-0.82 -0.53,-1.02 -0.36,-0.2 -0.9,-0.31 -1.62,-0.31 -0.7,0 -1.31,0.09 -1.84,0.27 -0.53,0.18 -0.95,0.36 -1.27,0.56l-0.75 -2.63c0.54,-0.31 1.24,-0.57 2.12,-0.79 0.87,-0.22 1.81,-0.33 2.8,-0.33 1.52,0 2.66,0.28 3.41,0.85 0.76,0.57 1.13,1.39 1.13,2.47 0,0.3 -0.04,0.61 -0.12,0.92 -0.08,0.31 -0.21,0.6 -0.38,0.89 -0.18,0.28 -0.4,0.53 -0.66,0.76 -0.25,0.22 -0.56,0.39 -0.91,0.51l0 0.11c0.94,0.21 1.6,0.59 1.99,1.13 0.39,0.54 0.58,1.26 0.58,2.16 0,0.57 -0.11,1.1 -0.34,1.58 -0.23,0.49 -0.58,0.91 -1.05,1.27 -0.47,0.35 -1.06,0.63 -1.76,0.85 -0.71,0.21 -1.56,0.32 -2.53,0.32 -0.97,0 -1.82,-0.11 -2.54,-0.31 -0.71,-0.2 -1.31,-0.44 -1.79,-0.7l0.74 -2.69c0.41,0.23 0.9,0.42 1.48,0.56 0.57,0.14 1.22,0.21 1.93,0.21 1.61,0 2.41,-0.51 2.41,-1.54 0,-0.46 -0.21,-0.8 -0.62,-1.01 -0.42,-0.21 -1.19,-0.32 -2.33,-0.32l-1.3 0z"/>
    <path class="fil0" d="M131.99 7.53c0.71,-0.32 1.55,-0.57 2.52,-0.76 0.98,-0.18 1.99,-0.28 3.06,-0.28 0.92,0 1.69,0.12 2.31,0.34 0.62,0.22 1.11,0.53 1.47,0.94 0.37,0.41 0.62,0.89 0.77,1.46 0.15,0.57 0.23,1.2 0.23,1.91 0,0.78 -0.03,1.57 -0.08,2.36 -0.06,0.78 -0.09,1.56 -0.09,2.32 -0.01,0.76 0.01,1.5 0.06,2.22 0.06,0.71 0.19,1.39 0.4,2.03l-2.82 0 -0.55 -1.83 -0.14 0c-0.35,0.55 -0.84,1.02 -1.47,1.42 -0.63,0.4 -1.44,0.6 -2.43,0.6 -0.62,0 -1.18,-0.1 -1.68,-0.28 -0.49,-0.19 -0.92,-0.45 -1.27,-0.8 -0.35,-0.35 -0.63,-0.75 -0.82,-1.22 -0.2,-0.47 -0.3,-1 -0.3,-1.58 0,-0.82 0.18,-1.5 0.55,-2.06 0.36,-0.56 0.88,-1.01 1.57,-1.36 0.68,-0.34 1.49,-0.58 2.44,-0.71 0.95,-0.14 2.01,-0.18 3.17,-0.12 0.13,-1 0.06,-1.71 -0.21,-2.14 -0.26,-0.43 -0.86,-0.65 -1.78,-0.65 -0.69,0 -1.42,0.07 -2.19,0.21 -0.77,0.14 -1.4,0.33 -1.9,0.56l-0.82 -2.58zm4.38 9.88c0.69,0 1.24,-0.15 1.65,-0.46 0.4,-0.31 0.71,-0.64 0.9,-1l0 -1.72c-0.55,-0.06 -1.08,-0.07 -1.58,-0.03 -0.5,0.03 -0.95,0.11 -1.34,0.24 -0.39,0.12 -0.7,0.3 -0.93,0.53 -0.23,0.23 -0.35,0.52 -0.35,0.87 0,0.5 0.15,0.89 0.44,1.16 0.29,0.28 0.7,0.41 1.21,0.41z"/>
    <path class="fil0" d="M153.03 14.81l-4.33 0 0 5.23 -3.46 0 0 -13.28 3.46 0 0 4.99 4.33 0 0 -4.99 3.45 0 0 13.28 -3.45 0 0 -5.23z"/>
    <path class="fil0" d="M168.92 19.22c-0.54,0.39 -1.18,0.69 -1.93,0.89 -0.75,0.2 -1.53,0.3 -2.33,0.3 -1.06,0 -1.96,-0.16 -2.69,-0.5 -0.74,-0.34 -1.33,-0.81 -1.8,-1.42 -0.46,-0.61 -0.79,-1.35 -0.99,-2.22 -0.2,-0.87 -0.31,-1.82 -0.31,-2.87 0,-2.25 0.51,-3.98 1.52,-5.19 1.01,-1.22 2.48,-1.82 4.41,-1.82 0.97,0 1.75,0.08 2.35,0.24 0.59,0.16 1.13,0.36 1.61,0.61l-0.83 2.81c-0.41,-0.19 -0.81,-0.34 -1.21,-0.45 -0.4,-0.1 -0.85,-0.16 -1.36,-0.16 -0.96,0 -1.69,0.32 -2.18,0.95 -0.5,0.63 -0.75,1.63 -0.75,3.01 0,0.57 0.07,1.09 0.19,1.57 0.12,0.48 0.31,0.89 0.56,1.25 0.24,0.35 0.57,0.63 0.97,0.84 0.39,0.2 0.86,0.3 1.39,0.3 0.58,0 1.08,-0.08 1.49,-0.23 0.41,-0.15 0.77,-0.33 1.09,-0.54l0.8 2.63z"/>
    <path class="fil0" d="M175.4 14.54l-0.93 0 0 5.5 -3.46 0 0 -13.28 3.46 0 0 5.66 0.82 -0.37 3.11 -5.29 3.69 0 -3.21 5.05 -1.36 1.01 1.49 1.03 3.59 6.19 -3.96 0 -3.24 -5.5z"/>
    <path class="fil0" d="M192 13.98l0.13 -1.88 -0.07 0 -1.15 1.94 -4.73 6 -2.18 0 0 -13.28 3.46 0 0 6.32 -0.16 1.81 0.11 0 1.09 -1.89 4.78 -6.24 2.17 0 0 13.28 -3.45 0 0 -6.06z"/>
    <path class="fil0" d="M206.48 13.98l0.13 -1.88 -0.08 0 -1.14 1.94 -4.73 6 -2.18 0 0 -13.28 3.46 0 0 6.32 -0.16 1.81 0.11 0 1.08 -1.89 4.79 -6.24 2.17 0 0 13.28 -3.45 0 0 -6.06zm-3.69 -12.64c0.12,0.69 0.33,1.18 0.62,1.46 0.29,0.28 0.67,0.43 1.13,0.43 0.5,0 0.89,-0.15 1.18,-0.43 0.3,-0.28 0.5,-0.76 0.6,-1.43l2.63 0.66c-0.21,1.15 -0.73,2.01 -1.57,2.56 -0.83,0.56 -1.8,0.84 -2.92,0.84 -0.55,0 -1.08,-0.06 -1.59,-0.19 -0.52,-0.12 -0.98,-0.32 -1.39,-0.59 -0.4,-0.28 -0.75,-0.63 -1.03,-1.05 -0.28,-0.43 -0.48,-0.95 -0.58,-1.57l2.92 -0.69z"/>
    <path class="fil0" d="M225.77 20.2c-0.3,0.11 -0.62,0.17 -0.95,0.19 -0.32,0.02 -0.62,0.02 -0.88,0.02 -1.62,0 -2.86,-0.57 -3.73,-1.72 -0.86,-1.15 -1.3,-2.91 -1.3,-5.29 0,-2.27 0.48,-3.98 1.44,-5.15 0.95,-1.17 2.34,-1.76 4.14,-1.76 0.5,0 0.92,0.04 1.28,0.11l0 -5.15 3.4 0 0 5.18c0.32,-0.06 0.6,-0.09 0.85,-0.11 0.25,-0.02 0.49,-0.03 0.72,-0.03 1.75,0 3.07,0.52 3.95,1.56 0.89,1.03 1.33,2.73 1.33,5.09 0,1.11 -0.12,2.12 -0.36,3.01 -0.24,0.9 -0.59,1.66 -1.05,2.3 -0.46,0.64 -1.02,1.12 -1.68,1.46 -0.67,0.34 -1.43,0.5 -2.3,0.5 -0.16,0 -0.39,-0.01 -0.7,-0.03 -0.32,-0.03 -0.57,-0.08 -0.76,-0.15l0 5.13 -3.4 0 0 -5.16zm4.2 -10.97c-0.18,0 -0.34,0.01 -0.47,0.04 -0.13,0.03 -0.3,0.06 -0.49,0.09l0 8.24c0.14,0.04 0.31,0.06 0.49,0.07 0.19,0 0.39,0.01 0.6,0.01 0.85,0 1.47,-0.35 1.87,-1.05 0.4,-0.7 0.6,-1.86 0.6,-3.49 0,-1.39 -0.2,-2.38 -0.59,-2.99 -0.38,-0.61 -1.06,-0.92 -2.01,-0.92zm-5.13 8.45c0.19,0 0.37,-0.01 0.54,-0.04 0.17,-0.03 0.35,-0.06 0.55,-0.09l0 -8.21c-0.34,-0.07 -0.68,-0.11 -1.04,-0.11 -0.81,0 -1.44,0.32 -1.87,0.94 -0.44,0.63 -0.65,1.71 -0.65,3.23 0,1.38 0.2,2.44 0.6,3.18 0.39,0.73 1.02,1.1 1.87,1.1z"/>
    <path class="fil0" d="M248.91 18.9c-0.53,0.43 -1.25,0.78 -2.17,1.08 -0.91,0.29 -1.88,0.43 -2.91,0.43 -2.14,0 -3.71,-0.62 -4.7,-1.87 -0.99,-1.25 -1.49,-2.96 -1.49,-5.14 0,-2.34 0.56,-4.09 1.68,-5.26 1.11,-1.17 2.68,-1.75 4.7,-1.75 0.67,0 1.33,0.09 1.97,0.26 0.63,0.18 1.2,0.47 1.7,0.88 0.49,0.41 0.89,0.96 1.19,1.65 0.3,0.69 0.45,1.55 0.45,2.57 0,0.38 -0.02,0.77 -0.06,1.2 -0.05,0.43 -0.12,0.87 -0.2,1.33l-7.97 0c0.05,1.11 0.34,1.96 0.86,2.52 0.52,0.57 1.37,0.85 2.54,0.85 0.72,0 1.37,-0.11 1.95,-0.33 0.58,-0.22 1.02,-0.45 1.32,-0.68l1.14 2.26zm-4.94 -9.75c-0.91,0 -1.58,0.27 -2.01,0.81 -0.43,0.54 -0.69,1.26 -0.78,2.17l4.94 0c0.07,-0.96 -0.08,-1.7 -0.44,-2.21 -0.36,-0.51 -0.93,-0.77 -1.71,-0.77z"/>
    <path class="fil0" d="M264.69 23.07l-2.53 0 -0.39 -3.03 -8.93 0 -0.4 3.03 -2.52 0 0 -6.08 1.56 0c0.15,-0.2 0.33,-0.53 0.55,-1 0.22,-0.47 0.44,-1.11 0.66,-1.92 0.22,-0.82 0.41,-1.83 0.57,-3.03 0.16,-1.21 0.24,-2.63 0.24,-4.28l9.25 0 0 10.23 1.94 0 0 6.08zm-5.39 -5.92l0 -7.47 -2.79 0c-0.04,0.64 -0.1,1.32 -0.19,2.03 -0.09,0.72 -0.2,1.42 -0.33,2.09 -0.13,0.67 -0.29,1.3 -0.47,1.89 -0.17,0.58 -0.37,1.07 -0.58,1.46l4.36 0z"/>
    <path class="fil0" d="M277.2 18.9c-0.53,0.43 -1.25,0.78 -2.16,1.08 -0.92,0.29 -1.89,0.43 -2.91,0.43 -2.15,0 -3.71,-0.62 -4.7,-1.87 -1,-1.25 -1.49,-2.96 -1.49,-5.14 0,-2.34 0.55,-4.09 1.67,-5.26 1.12,-1.17 2.68,-1.75 4.7,-1.75 0.68,0 1.33,0.09 1.97,0.26 0.64,0.18 1.2,0.47 1.7,0.88 0.5,0.41 0.89,0.96 1.2,1.65 0.3,0.69 0.45,1.55 0.45,2.57 0,0.38 -0.03,0.77 -0.07,1.2 -0.04,0.43 -0.11,0.87 -0.2,1.33l-7.97 0c0.05,1.11 0.34,1.96 0.86,2.52 0.53,0.57 1.37,0.85 2.54,0.85 0.73,0 1.38,-0.11 1.95,-0.33 0.58,-0.22 1.02,-0.45 1.32,-0.68l1.14 2.26zm-4.94 -9.75c-0.9,0 -1.57,0.27 -2.01,0.81 -0.43,0.54 -0.69,1.26 -0.78,2.17l4.94 0c0.07,-0.96 -0.07,-1.7 -0.44,-2.21 -0.36,-0.51 -0.93,-0.77 -1.71,-0.77z"/>
    <path class="fil0" d="M280.07 6.76l2.53 0 0.39 1.59 0.11 0c0.46,-0.67 1,-1.17 1.63,-1.48 0.63,-0.32 1.4,-0.48 2.3,-0.48 1.67,0 2.91,0.52 3.75,1.58 0.83,1.05 1.24,2.75 1.24,5.09 0,1.13 -0.13,2.15 -0.39,3.06 -0.27,0.92 -0.66,1.69 -1.19,2.33 -0.52,0.64 -1.15,1.12 -1.91,1.46 -0.75,0.34 -1.61,0.5 -2.59,0.5 -0.55,0 -1,-0.03 -1.35,-0.11 -0.36,-0.09 -0.71,-0.21 -1.07,-0.39l0 5.45 -3.45 0 0 -18.6zm5.92 2.55c-0.67,0 -1.19,0.17 -1.58,0.5 -0.38,0.34 -0.67,0.85 -0.89,1.52l0 5.53c0.25,0.19 0.52,0.35 0.81,0.46 0.3,0.12 0.68,0.17 1.16,0.17 0.99,0 1.74,-0.35 2.23,-1.05 0.5,-0.7 0.75,-1.85 0.75,-3.46 0,-1.17 -0.2,-2.08 -0.59,-2.71 -0.39,-0.64 -1.02,-0.96 -1.89,-0.96z"/>
    <path class="fil0" d="M294.34 7.53c0.71,-0.32 1.55,-0.57 2.52,-0.76 0.98,-0.18 1.99,-0.28 3.06,-0.28 0.92,0 1.69,0.12 2.31,0.34 0.62,0.22 1.11,0.53 1.47,0.94 0.37,0.41 0.62,0.89 0.77,1.46 0.15,0.57 0.23,1.2 0.23,1.91 0,0.78 -0.03,1.57 -0.08,2.36 -0.06,0.78 -0.09,1.56 -0.1,2.32 0,0.76 0.02,1.5 0.07,2.22 0.05,0.71 0.19,1.39 0.4,2.03l-2.82 0 -0.55 -1.83 -0.14 0c-0.35,0.55 -0.84,1.02 -1.47,1.42 -0.63,0.4 -1.44,0.6 -2.43,0.6 -0.62,0 -1.18,-0.1 -1.68,-0.28 -0.49,-0.19 -0.92,-0.45 -1.27,-0.8 -0.36,-0.35 -0.63,-0.75 -0.82,-1.22 -0.2,-0.47 -0.3,-1 -0.3,-1.58 0,-0.82 0.18,-1.5 0.55,-2.06 0.36,-0.56 0.88,-1.01 1.57,-1.36 0.68,-0.34 1.49,-0.58 2.44,-0.71 0.95,-0.14 2.01,-0.18 3.17,-0.12 0.13,-1 0.06,-1.71 -0.21,-2.14 -0.27,-0.43 -0.86,-0.65 -1.78,-0.65 -0.69,0 -1.42,0.07 -2.19,0.21 -0.77,0.14 -1.4,0.33 -1.9,0.56l-0.82 -2.58zm4.38 9.88c0.69,0 1.24,-0.15 1.65,-0.46 0.4,-0.31 0.71,-0.64 0.9,-1l0 -1.72c-0.55,-0.06 -1.08,-0.07 -1.58,-0.03 -0.5,0.03 -0.95,0.11 -1.34,0.24 -0.39,0.12 -0.7,0.3 -0.93,0.53 -0.23,0.23 -0.35,0.52 -0.35,0.87 0,0.5 0.15,0.89 0.44,1.16 0.29,0.28 0.7,0.41 1.21,0.41z"/>
    <path class="fil0" d="M314.82 9.81l-2.63 0c-0.11,1.26 -0.23,2.51 -0.37,3.75 -0.14,1.24 -0.37,2.35 -0.68,3.33 -0.31,0.99 -0.73,1.79 -1.26,2.4 -0.53,0.61 -1.22,0.91 -2.07,0.91 -1.03,0 -1.76,-0.13 -2.18,-0.4l0.42 -2.87c0.29,0.11 0.55,0.16 0.8,0.16 0.36,0 0.66,-0.15 0.93,-0.45 0.27,-0.3 0.49,-0.84 0.68,-1.62 0.18,-0.78 0.33,-1.84 0.45,-3.17 0.11,-1.34 0.2,-3.04 0.25,-5.09l9.11 0 0 13.28 -3.45 0 0 -10.23z"/>
    <path class="fil0" d="M324.73 17.15c0.53,0.1 1.03,0.16 1.51,0.16 0.85,0 1.47,-0.15 1.85,-0.44 0.38,-0.29 0.57,-0.75 0.57,-1.37 0,-1.15 -0.78,-1.73 -2.34,-1.73 -0.58,0 -1.11,0.07 -1.59,0.19l0 3.19zm0 -5.66c0.42,-0.07 0.85,-0.12 1.29,-0.15 0.43,-0.02 0.83,-0.04 1.18,-0.04 0.92,0 1.7,0.11 2.34,0.31 0.64,0.2 1.15,0.49 1.55,0.86 0.4,0.37 0.69,0.81 0.87,1.32 0.17,0.5 0.26,1.05 0.26,1.63 0,1.61 -0.48,2.82 -1.43,3.61 -0.96,0.8 -2.58,1.2 -4.86,1.2 -1.02,0 -1.89,-0.02 -2.62,-0.05 -0.74,-0.04 -1.41,-0.08 -2.03,-0.14l0 -13.28 3.45 0 0 4.73z"/>
    <path class="fil0" d="M342.08 14.81l-4.33 0 0 5.23 -3.46 0 0 -13.28 3.46 0 0 4.99 4.33 0 0 -4.99 3.45 0 0 13.28 -3.45 0 0 -5.23z"/>
    <path class="fil0" d="M352.01 17.15c0.54,0.1 1.04,0.16 1.52,0.16 0.79,0 1.35,-0.15 1.67,-0.44 0.32,-0.29 0.48,-0.75 0.48,-1.37 0,-0.57 -0.16,-1 -0.48,-1.29 -0.32,-0.29 -0.85,-0.44 -1.59,-0.44 -0.59,0 -1.12,0.07 -1.6,0.19l0 3.19zm0 -5.66c0.43,-0.07 0.86,-0.12 1.29,-0.15 0.44,-0.02 0.83,-0.04 1.18,-0.04 0.91,0 1.66,0.11 2.26,0.31 0.61,0.2 1.09,0.49 1.46,0.86 0.38,0.37 0.64,0.81 0.8,1.32 0.16,0.5 0.24,1.05 0.24,1.63 0,0.8 -0.11,1.5 -0.32,2.1 -0.21,0.6 -0.56,1.1 -1.04,1.5 -0.47,0.4 -1.09,0.7 -1.86,0.9 -0.76,0.21 -1.7,0.31 -2.81,0.31 -1.01,0 -1.88,-0.02 -2.62,-0.05 -0.73,-0.04 -1.41,-0.08 -2.03,-0.14l0 -13.28 3.45 0 0 4.73zm8.74 -4.73l3.46 0 0 13.28 -3.46 0 0 -13.28z"/>
    <path class="fil0" d="M375.23 13.98l0.14 -1.88 -0.08 0 -1.15 1.94 -4.72 6 -2.18 0 0 -13.28 3.45 0 0 6.32 -0.16 1.81 0.11 0 1.09 -1.89 4.78 -6.24 2.18 0 0 13.28 -3.46 0 0 -6.06zm-3.69 -12.64c0.12,0.69 0.33,1.18 0.62,1.46 0.3,0.28 0.67,0.43 1.13,0.43 0.5,0 0.89,-0.15 1.18,-0.43 0.3,-0.28 0.5,-0.76 0.6,-1.43l2.63 0.66c-0.21,1.15 -0.73,2.01 -1.56,2.56 -0.84,0.56 -1.81,0.84 -2.93,0.84 -0.55,0 -1.08,-0.06 -1.59,-0.19 -0.51,-0.12 -0.97,-0.32 -1.38,-0.59 -0.41,-0.28 -0.76,-0.63 -1.04,-1.05 -0.28,-0.43 -0.48,-0.95 -0.58,-1.57l2.92 -0.69z"/>
    <path class="fil0" d="M97.24 38.83l0.53 2.41 0.16 0 0.42 -2.5 2.79 -8.12 3.75 0 -4.94 12.86c-0.39,1 -0.77,1.88 -1.13,2.62 -0.37,0.75 -0.75,1.36 -1.17,1.85 -0.42,0.49 -0.88,0.85 -1.4,1.09 -0.51,0.24 -1.11,0.36 -1.8,0.36 -0.59,0 -1.06,-0.04 -1.42,-0.12 -0.37,-0.08 -0.76,-0.25 -1.19,-0.52l0.93 -2.95c0.3,0.16 0.58,0.26 0.83,0.29 0.25,0.04 0.51,0.06 0.8,0.06 0.83,0 1.41,-0.66 1.75,-1.97l-6.96 -13.57 4.27 0 3.78 8.21z"/>
    <path class="fil0" d="M116.55 41.43l-6.8 0 0 7.78 -3.64 0 0 -18.59 3.64 0 0 7.57 6.8 0 0 -7.57 3.64 0 0 18.59 -3.64 0 0 -7.78z"/>
    <path class="fil0" d="M134.25 38.91l0.21 -2.42 -0.14 0 -1.24 2.49 -6.94 10.23 -2.73 0 0 -18.59 3.64 0 0 10.12 -0.27 2.5 0.16 0 1.3 -2.58 6.94 -10.04 2.71 0 0 18.59 -3.64 0 0 -10.3z"/>
    <path class="fil0" d="M153.61 34.95c0,0.46 -0.05,0.92 -0.17,1.38 -0.12,0.46 -0.31,0.88 -0.57,1.26 -0.27,0.38 -0.61,0.72 -1.04,1.01 -0.42,0.29 -0.94,0.51 -1.54,0.65l0 0.16c0.53,0.09 1.04,0.24 1.52,0.45 0.47,0.21 0.89,0.51 1.24,0.88 0.36,0.37 0.64,0.82 0.84,1.35 0.2,0.54 0.31,1.16 0.31,1.89 0,0.96 -0.21,1.78 -0.61,2.48 -0.41,0.7 -0.96,1.27 -1.64,1.72 -0.68,0.44 -1.46,0.77 -2.32,0.98 -0.87,0.21 -1.77,0.32 -2.69,0.32 -0.3,0 -0.68,0 -1.15,0 -0.47,0 -0.98,-0.01 -1.52,-0.04 -0.54,-0.03 -1.08,-0.07 -1.64,-0.12 -0.56,-0.05 -1.07,-0.13 -1.53,-0.24l0 -18.33c0.34,-0.05 0.72,-0.11 1.15,-0.16 0.44,-0.05 0.9,-0.1 1.4,-0.13 0.5,-0.04 1.01,-0.07 1.53,-0.08 0.52,-0.02 1.04,-0.03 1.55,-0.03 0.87,0 1.71,0.07 2.54,0.2 0.82,0.13 1.56,0.37 2.2,0.7 0.65,0.34 1.17,0.81 1.56,1.41 0.39,0.6 0.58,1.37 0.58,2.29zm-6.64 11.53c0.44,0 0.87,-0.06 1.29,-0.16 0.41,-0.11 0.78,-0.27 1.1,-0.5 0.32,-0.22 0.58,-0.49 0.77,-0.83 0.2,-0.34 0.29,-0.74 0.29,-1.2 0,-0.58 -0.11,-1.04 -0.34,-1.38 -0.23,-0.34 -0.53,-0.6 -0.9,-0.78 -0.38,-0.19 -0.79,-0.31 -1.25,-0.36 -0.46,-0.05 -0.92,-0.08 -1.38,-0.08l-1.94 0 0 5.13c0.08,0.03 0.23,0.06 0.42,0.08 0.2,0.02 0.4,0.03 0.63,0.04 0.22,0 0.45,0.01 0.69,0.02 0.23,0.01 0.44,0.02 0.62,0.02zm-1.2 -8.05c0.25,0 0.54,-0.01 0.87,-0.03 0.33,-0.02 0.6,-0.04 0.81,-0.08 0.67,-0.21 1.25,-0.53 1.74,-0.96 0.49,-0.42 0.73,-0.98 0.73,-1.67 0,-0.46 -0.09,-0.84 -0.27,-1.14 -0.17,-0.3 -0.41,-0.54 -0.7,-0.72 -0.29,-0.18 -0.62,-0.3 -1,-0.37 -0.37,-0.07 -0.76,-0.11 -1.17,-0.11 -0.46,0 -0.88,0.01 -1.27,0.03 -0.39,0.02 -0.69,0.04 -0.9,0.08l0 4.97 1.16 0z"/>
    <path class="fil0" d="M156.8 30.62l11.03 0 0 3.24 -7.39 0 0 4.33 6.72 0 0 3.24 -6.72 0 0 4.54 7.52 0 0 3.24 -11.16 0 0 -18.59z"/>
    <path class="fil0" d="M170.67 30.8c0.74,-0.14 1.56,-0.25 2.46,-0.33 0.89,-0.08 1.78,-0.12 2.67,-0.12 0.92,0 1.84,0.08 2.77,0.23 0.93,0.15 1.77,0.45 2.51,0.9 0.75,0.45 1.35,1.08 1.82,1.89 0.47,0.8 0.71,1.85 0.71,3.14 0,1.17 -0.21,2.16 -0.62,2.97 -0.4,0.8 -0.94,1.46 -1.62,1.97 -0.67,0.52 -1.43,0.89 -2.29,1.12 -0.86,0.23 -1.75,0.35 -2.67,0.35 -0.09,0 -0.23,0 -0.43,0 -0.19,0 -0.4,-0.01 -0.61,-0.02 -0.21,-0.01 -0.42,-0.02 -0.62,-0.04 -0.21,-0.01 -0.35,-0.03 -0.44,-0.05l0 6.4 -3.64 0 0 -18.41zm5.42 2.69c-0.36,0 -0.69,0.01 -1.01,0.03 -0.32,0.03 -0.58,0.06 -0.77,0.1l0 6.03c0.07,0.02 0.17,0.03 0.32,0.05 0.14,0.02 0.29,0.03 0.45,0.04 0.16,0.01 0.31,0.01 0.46,0.01 0.15,0 0.26,0 0.34,0 0.47,0 0.95,-0.04 1.42,-0.13 0.47,-0.09 0.89,-0.25 1.26,-0.49 0.37,-0.24 0.67,-0.57 0.89,-1 0.22,-0.42 0.33,-0.98 0.33,-1.67 0,-0.58 -0.11,-1.07 -0.32,-1.45 -0.21,-0.38 -0.49,-0.68 -0.84,-0.91 -0.34,-0.23 -0.73,-0.39 -1.18,-0.48 -0.44,-0.09 -0.89,-0.13 -1.35,-0.13z"/>
    <path class="fil0" d="M198.16 48.44c-0.56,0.41 -1.28,0.7 -2.16,0.88 -0.88,0.18 -1.78,0.26 -2.7,0.26 -1.11,0 -2.17,-0.17 -3.17,-0.51 -1,-0.35 -1.88,-0.91 -2.64,-1.68 -0.77,-0.77 -1.37,-1.77 -1.83,-3 -0.45,-1.23 -0.67,-2.72 -0.67,-4.48 0,-1.82 0.25,-3.35 0.75,-4.58 0.51,-1.23 1.17,-2.22 1.97,-2.97 0.81,-0.76 1.7,-1.3 2.7,-1.62 0.99,-0.33 1.98,-0.5 2.97,-0.5 1.06,0 1.96,0.08 2.7,0.22 0.73,0.14 1.34,0.31 1.82,0.5l-0.72 3.08c-0.41,-0.19 -0.89,-0.33 -1.45,-0.42 -0.55,-0.09 -1.23,-0.13 -2.03,-0.13 -1.47,0 -2.65,0.52 -3.54,1.56 -0.9,1.05 -1.35,2.67 -1.35,4.86 0,0.96 0.11,1.83 0.32,2.62 0.22,0.79 0.54,1.46 0.97,2.02 0.44,0.56 0.97,0.99 1.62,1.3 0.65,0.31 1.4,0.47 2.25,0.47 0.79,0 1.47,-0.08 2.02,-0.24 0.54,-0.16 1.02,-0.37 1.43,-0.61l0.74 2.97z"/>
    <path class="fil0" d="M211.26 38.91l0.21 -2.42 -0.13 0 -1.25 2.49 -6.93 10.23 -2.74 0 0 -18.59 3.64 0 0 10.12 -0.26 2.5 0.16 0 1.3 -2.58 6.93 -10.04 2.71 0 0 18.59 -3.64 0 0 -10.3z"/>
    <path class="fil0" d="M231.32 33.86l-5.42 0 0 15.35 -3.64 0 0 -15.35 -5.45 0 0 -3.24 14.51 0 0 3.24z"/>
    <path class="fil0" d="M233.21 30.62l11.02 0 0 3.24 -7.38 0 0 4.33 6.72 0 0 3.24 -6.72 0 0 4.54 7.51 0 0 3.24 -11.15 0 0 -18.59z"/>
    <path class="fil0" d="M260.28 33.86l-5.42 0 0 15.35 -3.64 0 0 -15.35 -5.45 0 0 -3.24 14.51 0 0 3.24z"/>
    <path class="fil0" d="M91.02 82.16l2.14 0 0 -18.06 -2.14 0 0 18.06z"/>
    <path class="fil0" d="M109.64 66.01l-5.62 0 0 16.15 -2.14 0 0 -16.15 -5.62 0 0 -1.91 13.38 0 0 1.91z"/>
    <path class="fil0" d="M109.41 75.68l6.24 0 0 -1.91 -6.24 0 0 1.91z"/>
    <path class="fil0" d="M125.17 71.07l-3.74 0c-0.05,0.72 -0.1,1.5 -0.15,2.33 -0.06,0.83 -0.13,1.67 -0.24,2.5 -0.1,0.84 -0.24,1.64 -0.41,2.4 -0.17,0.77 -0.39,1.44 -0.66,2.03 -0.27,0.58 -0.59,1.05 -0.98,1.4 -0.38,0.35 -0.84,0.53 -1.38,0.53 -0.32,0 -0.61,-0.02 -0.85,-0.05 -0.24,-0.04 -0.45,-0.1 -0.64,-0.18l0.31 -1.73c0.2,0.07 0.43,0.1 0.67,0.1 0.34,0 0.65,-0.14 0.93,-0.44 0.27,-0.29 0.51,-0.84 0.72,-1.66 0.2,-0.82 0.38,-1.95 0.51,-3.39 0.14,-1.44 0.24,-3.33 0.29,-5.65l7.68 0 0 12.9 -2.06 0 0 -11.09z"/>
    <path class="fil0" d="M139.2 74.52l0.08 -1.6 -0.08 0 -1.06 1.65 -5.8 7.59 -1.19 0 0 -12.9 2.07 0 0 7.87 -0.08 1.52 0.1 0 1.01 -1.6 5.8 -7.79 1.22 0 0 12.9 -2.07 0 0 -7.64z"/>
    <path class="fil0" d="M156.77 85.43l-1.4 0 -0.38 -3.27 -9.8 0 0 -12.9 2.06 0 0 11.09 5.6 0 0 -11.09 2.06 0 0 11.09 1.86 0 0 5.08z"/>
    <path class="fil0" d="M164.24 70.76c-1.01,0 -1.82,0.26 -2.43,0.8 -0.61,0.53 -0.98,1.44 -1.1,2.73l6.4 0c0,-1.31 -0.25,-2.22 -0.75,-2.75 -0.5,-0.52 -1.2,-0.78 -2.12,-0.78zm4.44 10.37c-0.51,0.41 -1.16,0.74 -1.95,0.98 -0.78,0.24 -1.61,0.36 -2.49,0.36 -0.97,0 -1.83,-0.16 -2.55,-0.48 -0.72,-0.32 -1.31,-0.77 -1.78,-1.37 -0.46,-0.59 -0.81,-1.3 -1.03,-2.13 -0.22,-0.82 -0.33,-1.75 -0.33,-2.78 0,-2.2 0.49,-3.88 1.47,-5.03 0.98,-1.15 2.38,-1.73 4.2,-1.73 0.59,0 1.17,0.07 1.75,0.19 0.59,0.13 1.11,0.38 1.58,0.74 0.46,0.36 0.84,0.87 1.13,1.53 0.3,0.67 0.44,1.54 0.44,2.62 0,0.57 -0.05,1.2 -0.15,1.89l-8.28 0c0,0.75 0.07,1.42 0.23,2.01 0.15,0.58 0.39,1.08 0.72,1.48 0.33,0.4 0.75,0.72 1.28,0.93 0.52,0.21 1.16,0.32 1.92,0.32 0.58,0 1.17,-0.1 1.75,-0.31 0.59,-0.21 1.03,-0.44 1.32,-0.72l0.77 1.5z"/>
    <path class="fil0" d="M175.29 64.05c0.17,0.79 0.46,1.34 0.89,1.65 0.42,0.31 0.9,0.47 1.45,0.47 0.55,0 1.04,-0.17 1.47,-0.49 0.43,-0.33 0.73,-0.86 0.88,-1.6l1.55 0.49c-0.16,0.99 -0.6,1.76 -1.33,2.29 -0.73,0.54 -1.6,0.8 -2.62,0.8 -0.46,0 -0.92,-0.06 -1.38,-0.18 -0.45,-0.12 -0.86,-0.3 -1.22,-0.54 -0.36,-0.24 -0.67,-0.55 -0.93,-0.93 -0.26,-0.38 -0.43,-0.82 -0.52,-1.34l1.76 -0.62zm5.08 10.47l0.08 -1.6 -0.08 0 -1.06 1.65 -5.8 7.59 -1.19 0 0 -12.9 2.06 0 0 7.87 -0.07 1.52 0.1 0 1.01 -1.6 5.8 -7.79 1.21 0 0 12.9 -2.06 0 0 -7.64z"/>
   </g>
   <g>
    <path class="fil1" d="M1.45 1.64l-1.45 0 0 -1.46 5.6 0 0 1.46 -1.46 0 0 9.81 1.46 0 0 1.46 -5.6 0 0 -1.46 1.45 0 0 -9.81z"/>
    <path class="fil1" d="M17.93 2.55l-4.04 0 0 10.36 -2.69 0 0 -10.36 -4.04 0 0 -2.37 10.77 0 0 2.37z"/>
    <path class="fil1" d="M28.49 12.91l-8.77 0 0 -12.73 2.69 0 0 10.37 6.08 0 0 2.36z"/>
    <path class="fil1" d="M33.66 7.53l-0.71 0 0 5.38 -2.69 0 0 -12.73 2.69 0 0 5.6 0.63 -0.27 3.82 -5.33 3.08 0 -4.04 5.33 -1.05 0.69 1.09 0.73 4.61 5.98 -3.32 0 -4.11 -5.38z"/>
    <path class="fil1" d="M46.86 2.36c-0.25,0 -0.5,0.01 -0.74,0.02 -0.23,0.01 -0.42,0.04 -0.57,0.07l0 3.79c0.05,0.01 0.13,0.02 0.24,0.03 0.11,0.01 0.22,0.02 0.34,0.03 0.12,0.01 0.24,0.01 0.34,0.02 0.1,0 0.18,0.01 0.25,0.01 0.35,0 0.7,-0.03 1.05,-0.08 0.35,-0.04 0.66,-0.15 0.94,-0.3 0.27,-0.16 0.49,-0.38 0.66,-0.65 0.17,-0.27 0.25,-0.64 0.25,-1.1 0,-0.39 -0.08,-0.7 -0.23,-0.94 -0.16,-0.23 -0.37,-0.42 -0.63,-0.55 -0.26,-0.13 -0.56,-0.22 -0.89,-0.27 -0.33,-0.05 -0.67,-0.08 -1.01,-0.08zm-4 -2.05c0.55,-0.1 1.15,-0.17 1.82,-0.23 0.67,-0.05 1.33,-0.08 2,-0.08 0.68,0 1.36,0.05 2.05,0.16 0.69,0.1 1.32,0.3 1.87,0.61 0.55,0.31 1,0.74 1.35,1.29 0.35,0.56 0.53,1.29 0.53,2.19 0,0.8 -0.15,1.49 -0.45,2.05 -0.31,0.56 -0.71,1.02 -1.21,1.37 -0.51,0.36 -1.08,0.61 -1.72,0.78 -0.65,0.16 -1.31,0.24 -1.98,0.24 -0.07,0 -0.17,0 -0.31,0 -0.15,0 -0.3,0 -0.47,-0.01 -0.16,0 -0.32,-0.01 -0.46,-0.03 -0.15,-0.01 -0.26,-0.02 -0.33,-0.03l0 4.29 -2.69 0 0 -12.6z"/>
    <path class="fil1" d="M54.4 0.18l8.2 0 0 2.37 -5.51 0 0 2.96 5.07 0 0 2.36 -5.07 0 0 5.04 -2.69 0 0 -12.73z"/>
    <path class="fil1" d="M72.24 0.18l2.54 0 0 8.17c0,0.82 -0.11,1.54 -0.35,2.14 -0.24,0.61 -0.57,1.1 -1,1.49 -0.43,0.39 -0.95,0.68 -1.55,0.87 -0.6,0.18 -1.25,0.28 -1.97,0.28 -1.71,0 -3.01,-0.37 -3.91,-1.12 -0.89,-0.75 -1.34,-1.86 -1.34,-3.36l0 -8.47 2.69 0 0 7.98c0,0.97 0.21,1.65 0.63,2.03 0.43,0.38 1.06,0.57 1.89,0.57 0.8,0 1.4,-0.2 1.79,-0.61 0.38,-0.4 0.58,-1.07 0.58,-1.99l0 -7.98z"/>
    <path class="fil2" d="M0.23 15.93l74.46 0 0 58.53 0 0 0 0.09c0.2,14.31 -16.67,30.98 -37.23,30.98 -20.56,0 -37.23,-15.77 -37.23,-30.98l0 -0.09 0 0 0 -58.53z"/>
    <path class="fil3" d="M25.95 37.51c-2.32,-1.32 -3.31,0.58 -5.59,1.06 -2.53,0.52 -3.2,-1.45 -4.27,-3.2 1.78,0.37 1.88,1.2 4.2,-0.39 1.7,-1.16 3.86,-0.39 5.12,1.05l-1.4 -3.78c4.17,-0.03 8.88,-0.58 13.01,0l0.52 0.08c4.41,0.88 7.75,4.66 7.75,9.44 0,3.49 -2.01,7.39 -4.94,9.45l0 0.44c3.92,-0.9 8.4,-4.18 8.8,-6.02 -0.57,-0.23 -1.95,-1.02 -1.93,-1.11 -1.53,-1.11 -2.2,-3.3 -1.83,-4.96 0.36,-1.66 1.13,-2.46 2.24,-3.14 0.76,-0.38 1.45,-0.61 2.27,-0.69l20.63 -2.91c0.09,0.7 0.16,1.4 0.19,2.11 0.6,12.61 -9.15,23.33 -21.76,23.92 -4.31,0.21 -9.88,-2.18 -11.84,-6.26 -0.1,0.02 -0.2,0.04 -0.31,0.06 -0.74,0.08 -1.45,0.21 -2.1,0.37 -0.65,2.74 4.96,4.87 11.47,5.92l-1.05 1.51c1.24,-0.39 2.54,-0.6 3.9,-0.6 7.15,0 12.95,5.8 12.95,12.95 0,7.15 -5.8,12.96 -12.95,12.96 -7.15,0 -12.94,-5.81 -12.94,-12.96 0,-0.74 0.06,-1.45 0.18,-2.16l0.44 0.07 7.84 0.53c-0.39,0.64 -0.62,1.39 -0.62,2.19 0,2.31 1.88,4.19 4.19,4.19 2.33,0 4.21,-1.88 4.21,-4.19 0,-2.28 -1.83,-4.14 -4.09,-4.2l-0.01 -0.04 -0.52 0.06c-0.05,0.01 -0.1,0.01 -0.15,0.02l-6.75 0.8c-2.95,0.48 -5.5,0.68 -7.69,0.6l-9.34 12.74 -1.16 -3.08c-6.61,-0.56 -4.32,2.49 -2.85,3.74 0.15,0.13 0.16,0.64 0.01,0.75 -2.42,-0.19 -4.54,-2.13 -4.54,-4.67 0,-2.53 2.11,-4.69 4.7,-4.69 1.73,0 3.24,0.93 4.06,2.32l4.24 -13.37 -0.67 0 -2.56 3.68c-1.51,-1.58 -2.7,-3.48 -3.43,-5.59l-7.17 -8.87c-0.3,0.68 -0.77,1.28 -1.34,1.75l-1.43 -3.79c-3.17,-0.16 -5.13,0.61 -3.48,3.02l0.68 0.01 -0.09 -1.19 1.99 0 -0.32 4.16 0.01 0.03 -0.01 0 0 0.07 -1.37 0 0 -0.27 -0.1 -1.35c-1.81,-0.64 -3.54,-2.07 -3.54,-4.34 0,-1.76 1.2,-3.53 2.89,-4.3l-0.92 -12.2 -2.22 -2.82 3.76 0c-0.15,-1.56 0.34,-3.25 1.25,-4.62 -0.82,0.14 -1.6,0.59 -2.34,1.82 -0.49,-2.67 1.75,-6.12 4.82,-5.61 3.07,0.52 2.79,-0.36 4.4,-1.57 -0.11,0.99 -0.13,2 -0.35,2.86 3.17,0.35 3.03,-0.8 5.06,-2.33 -0.36,3.15 -0.02,6.33 -3.89,7.23 -3.52,0.83 -6.14,-1.23 -8.55,2.22l5.01 0 -2.22 2.81 -0.9 11.93c0.76,0.18 1.45,0.56 2.02,1.05l5.71 3.44 1.25 4.65 0.6 0c0.6,-7.79 7,-13.94 14.88,-14.15l-0.31 -0.77 -7.92 0.04 -1.49 -3.91zm-0.37 -1.27c0.25,0.33 0.46,0.68 0.61,1.04 3.37,0.61 9.64,4.5 7.54,-1.04l-8.15 0zm5.52 -11.26l2.04 0 0 0.49 0.64 0 0 1.59c-0.41,0.17 -0.7,0.58 -0.7,1.04 0,0.51 0.32,0.94 0.78,1.09l0 0 0.02 0 0.01 0 0.02 0.02 0 0 0.02 0 0.03 0 0 0 0.01 0 0.02 0.01 0 0 0.02 0 0.02 0.01 0 0 0.01 0 0.01 0 0 0 0.01 0.01 0.01 0 0 0 0.03 0 0.01 0 0.02 0 0.01 0.01 0.01 0 0.03 0 0.04 0c0.62,0 1.13,-0.51 1.13,-1.15l0 -0.01 0 -0.03 0 -0.02c-0.01,-0.02 -0.01,-0.02 -0.01,-0.04l0 -0.04c-0.01,-0.03 -0.01,-0.05 -0.01,-0.07l-0.01 -0.01 0 -0.02 -0.01 -0.04 0 -0.02 0 0 -0.01 -0.03 0 0 -0.01 -0.01c-0.05,-0.18 -0.15,-0.33 -0.28,-0.45l0 -0.01 -0.01 -0.01 -0.01 -0.02 0 0 -0.01 0 -0.01 -0.01 -0.01 -0.01 -0.02 -0.02 -0.01 0 0 0 -0.02 -0.02 0 0 0 0c-0.01,-0.01 -0.03,-0.02 -0.03,-0.03l-0.01 0 -0.01 -0.01 -0.02 0 -0.01 -0.02 -0.01 0 0 0c-0.01,-0.01 -0.02,-0.02 -0.04,-0.03 -0.02,-0.01 -0.03,-0.02 -0.05,-0.03l0 0 -0.02 -0.01 0 0 -0.02 0 0 -0.3c0,-0.93 0.82,-2.16 1.75,-2.19l1.74 -0.05 -2.48 6.5 -7.09 0.02 -2.48 -6.49 1.65 0.02c0.94,0.01 1.76,1.26 1.76,2.19l0 0.3c-0.23,0.1 -0.42,0.29 -0.53,0.51l0 0 -0.01 0.02 -0.01 0.01 -0.01 0.02 0 0 -0.01 0.01 0 0.01 -0.01 0.02 0 0.01 -0.01 0.03 0 0 -0.01 0.02 0 0c-0.01,0.05 -0.02,0.09 -0.04,0.14 -0.01,0.03 -0.01,0.07 -0.01,0.11l0 0c0,0.02 0,0.03 0,0.06l0 0.03 -0.01 0.01 0 0.01c0,0.64 0.51,1.15 1.14,1.15l0.03 0 0.03 0 0.01 0 0.01 -0.01 0.02 0 0.02 0 0.01 0 0.01 0 0 0 0 0 0.01 -0.01 0.01 0 0.01 0 0 0 0 0 0.01 0 0.01 0 0.01 -0.01 0.01 0 0.01 0 0.01 -0.01 0.02 0 0.01 0 0.04 0 0 0c0.48,-0.14 0.84,-0.58 0.84,-1.11 0,-0.46 -0.3,-0.87 -0.71,-1.04l0 -1.59 0.65 0 0 -0.49zm28.48 39.18c5.48,-2.22 10.56,-5.93 11.72,-15.17 -1.08,4.56 -3.45,7.08 -6.42,8.48 -3.18,1.5 -7.05,1.71 -10.75,1.75 2.5,1.08 4.2,2.64 5.45,4.94zm-32.77 31.43l1.09 0 0 -3.1 0.11 -0.53 -0.37 0.46 -0.7 0.47 -0.43 -0.58 1.79 -1.45 0.57 0 0 4.73 1.07 0 0 0.87 -3.13 0 0 -0.87zm5.7 -0.48c0,-0.18 0.02,-0.34 0.07,-0.49 0.05,-0.15 0.11,-0.27 0.2,-0.4 0.09,-0.11 0.19,-0.21 0.31,-0.31 0.12,-0.09 0.24,-0.18 0.38,-0.26 -0.26,-0.16 -0.46,-0.35 -0.61,-0.56 -0.14,-0.21 -0.22,-0.48 -0.22,-0.79 0,-0.21 0.05,-0.4 0.12,-0.57 0.08,-0.18 0.18,-0.34 0.33,-0.47 0.14,-0.13 0.31,-0.23 0.52,-0.3 0.21,-0.08 0.44,-0.11 0.69,-0.11 0.24,0 0.45,0.03 0.65,0.09 0.19,0.06 0.36,0.15 0.49,0.27 0.15,0.11 0.25,0.25 0.33,0.42 0.07,0.16 0.11,0.34 0.11,0.54 0,0.31 -0.07,0.57 -0.21,0.79 -0.14,0.21 -0.34,0.41 -0.6,0.58 0.31,0.19 0.54,0.39 0.7,0.61 0.16,0.22 0.24,0.5 0.24,0.85 0,0.24 -0.04,0.45 -0.13,0.64 -0.08,0.19 -0.21,0.35 -0.36,0.49 -0.16,0.13 -0.35,0.25 -0.56,0.32 -0.22,0.07 -0.47,0.12 -0.73,0.12 -0.26,0 -0.5,-0.04 -0.71,-0.11 -0.21,-0.07 -0.4,-0.17 -0.55,-0.3 -0.14,-0.12 -0.26,-0.27 -0.34,-0.45 -0.08,-0.18 -0.12,-0.38 -0.12,-0.6zm2.53 -0.1c0,-0.13 -0.03,-0.23 -0.08,-0.33 -0.06,-0.1 -0.14,-0.19 -0.23,-0.27 -0.09,-0.08 -0.19,-0.16 -0.31,-0.22 -0.11,-0.08 -0.22,-0.14 -0.34,-0.2 -0.25,0.14 -0.42,0.29 -0.51,0.46 -0.09,0.16 -0.13,0.32 -0.13,0.49 0,0.2 0.07,0.38 0.21,0.54 0.15,0.14 0.34,0.22 0.6,0.22 0.24,0 0.43,-0.06 0.57,-0.17 0.15,-0.12 0.22,-0.29 0.22,-0.52zm-1.42 -2.7c0,0.13 0.02,0.24 0.07,0.33 0.04,0.1 0.11,0.19 0.2,0.25 0.07,0.07 0.16,0.14 0.27,0.2 0.1,0.06 0.21,0.11 0.31,0.17 0.32,-0.27 0.48,-0.57 0.48,-0.88 0,-0.22 -0.07,-0.39 -0.2,-0.5 -0.12,-0.11 -0.28,-0.17 -0.46,-0.17 -0.24,0 -0.4,0.06 -0.51,0.18 -0.11,0.12 -0.16,0.26 -0.16,0.42zm4.74 1.38c0,-0.96 0.17,-1.68 0.5,-2.14 0.33,-0.47 0.81,-0.7 1.42,-0.7 0.66,0 1.15,0.23 1.45,0.69 0.32,0.47 0.47,1.18 0.47,2.15 0,0.98 -0.17,1.7 -0.5,2.17 -0.33,0.47 -0.81,0.71 -1.43,0.71 -0.66,0 -1.13,-0.25 -1.44,-0.75 -0.31,-0.5 -0.47,-1.2 -0.47,-2.13zm1.02 0c0,0.65 0.07,1.14 0.21,1.49 0.14,0.35 0.37,0.52 0.69,0.52 0.31,0 0.53,-0.16 0.68,-0.48 0.15,-0.32 0.22,-0.83 0.22,-1.53 0,-0.63 -0.07,-1.12 -0.21,-1.46 -0.13,-0.35 -0.37,-0.52 -0.7,-0.52 -0.31,0 -0.54,0.16 -0.68,0.49 -0.14,0.32 -0.21,0.82 -0.21,1.49zm9.04 1.24l-0.87 0 0 1.53 -0.95 0 0 -1.53 -2.38 0 0 -0.59 2.49 -3.43 0.84 0 0 3.2 0.87 0 0 0.82zm-1.82 -2.03l0.06 -0.66 -0.02 0 -0.27 0.57 -0.82 1.06 -0.39 0.3 0.5 -0.06 0.94 0 0 -1.21z"/>
   </g>
  </g>
 </g>
</svg>
