<?xml version="1.0" encoding="UTF-8"?>
<!DOCTYPE svg PUBLIC "-//W3C//DTD SVG 1.1//EN" "http://www.w3.org/Graphics/SVG/1.1/DTD/svg11.dtd">
<!-- Creator: CorelDRAW 2018 (64-Bit) -->
<svg xmlns="http://www.w3.org/2000/svg" xml:space="preserve" width="295px" height="56px" version="1.1" style="shape-rendering:geometricPrecision; text-rendering:geometricPrecision; image-rendering:optimizeQuality; fill-rule:evenodd; clip-rule:evenodd"
viewBox="0 0 102.02 19.31"
 xmlns:xlink="http://www.w3.org/1999/xlink">
 <defs>
  <style type="text/css">
   <![CDATA[
    .fil15 {fill:#18002F;fill-rule:nonzero}
    .fil2 {fill:#4E2079;fill-rule:nonzero}
    .fil4 {fill:#6A2B7C;fill-rule:nonzero}
    .fil12 {fill:#7A2F61;fill-rule:nonzero}
    .fil9 {fill:#943364;fill-rule:nonzero}
    .fil8 {fill:#A04468;fill-rule:nonzero}
    .fil7 {fill:#B55271;fill-rule:nonzero}
    .fil14 {fill:#D55461;fill-rule:nonzero}
    .fil6 {fill:#EC635B;fill-rule:nonzero}
    .fil0 {fill:#ED683C;fill-rule:nonzero}
    .fil5 {fill:#EF8259;fill-rule:nonzero}
    .fil11 {fill:#F18E48;fill-rule:nonzero}
    .fil10 {fill:#F29533;fill-rule:nonzero}
    .fil13 {fill:#F5A533;fill-rule:nonzero}
    .fil3 {fill:#F7B532;fill-rule:nonzero}
    .fil1 {fill:#FACB31;fill-rule:nonzero}
   ]]>
  </style>
 </defs>
 <g id="Слой_x0020_1">
  <metadata id="CorelCorpID_0Corel-Layer"/>
  <g id="_2428664750016">
   <g>
    <path class="fil0" d="M18.41 16.37l-2.04 -2.39 2.06 -2.41 2.03 2.39 -2.05 2.41zm-9.01 -10.58l2.76 -2.45 3.74 0 -2.77 2.45 4.04 4.31 -2.05 2.41 -5.72 -6.72zm9.01 -2.14l2.44 2.14 -2.42 2.84 -2.43 -2.84 2.41 -2.14zm9.01 2.14l-5.71 6.7 -2.03 -2.39 4.05 -4.31 -2.79 -2.45 3.69 0 2.79 2.45zm9.6 0l-6.69 -5.79 -1.25 1.43 4.95 4.36 -9.01 10.58 -2.06 -2.41 7.38 -8.17 -4.99 -4.36 -13.91 0 -4.94 4.36 7.37 8.19 -2.03 2.39 -9.02 -10.58 4.94 -4.36 -1.26 -1.43 -6.5 5.79 11.84 13.52 3.28 -3.86 3.29 3.86 3.3 -3.88 3.31 3.88 12 -13.52z"/>
    <path class="fil1" d="M2.82 5.79l-2.82 0 6.5 -5.79 1.26 1.43 -4.94 4.36z"/>
    <path class="fil2" d="M34.03 5.79l2.99 0 -6.69 -5.79 -1.25 1.43 4.95 4.36z"/>
    <path class="fil3" d="M0 5.79l11.84 13.52 0 -2.94 -9.02 -10.58 -2.82 0z"/>
    <path class="fil4" d="M37.02 5.79l-12.01 13.52 0 -2.94 9.01 -10.58 3 0z"/>
    <path class="fil5" d="M12.16 3.34l-0.72 -1.91 -4.94 4.36 2.9 0 2.76 -2.45z"/>
    <path class="fil6" d="M9.4 5.79l9.01 10.58 0 2.94 -11.91 -13.52 2.9 0z"/>
    <path class="fil7" d="M27.42 5.79l-2.79 -2.45 0.72 -1.91 4.99 4.36 -2.92 0z"/>
    <path class="fil8" d="M25.35 1.43l-7.56 0 1.01 1.91 5.83 0 0.72 -1.91z"/>
    <path class="fil9" d="M16 5.79l-2.87 0 4.89 -4.36 1.23 1.46 -3.25 2.9z"/>
    <path class="fil10" d="M15.91 1.43l4.94 4.36 2.88 0 -4.93 -4.36 -2.89 0z"/>
    <path class="fil11" d="M11.44 1.43l0.72 1.91 5.91 0 0.73 -1.91 -7.36 0z"/>
    <path class="fil12" d="M16 5.79l9.01 10.58 0 2.94 -11.88 -13.52 2.87 0z"/>
    <path class="fil13" d="M11.84 16.37l9.01 -10.58 2.88 0 -11.89 13.52 0 -2.94z"/>
    <path class="fil14" d="M18.41 16.37l9.01 -10.58 2.92 0 -11.93 13.51 0 -2.93z"/>
   </g>
   <g>
    <path class="fil15" d="M43.72 5.82l0.64 0 0.1 -1.41 -0.41 0 0 -2.79 -0.77 0 0 2.79 -1.37 0 0 -2.79 -0.76 0 0 3.48 2.57 0 0 0.72zm1.28 -0.72l2.64 0 0 -0.68 -1.88 0 0 -0.73 1.63 0 0 -0.68 -1.63 0 0 -0.71 1.86 0 0 -0.68 -2.62 0 0 3.48zm3.32 0l0.77 0 0 -1.4 1.41 0 0 1.4 0.77 0 0 -3.48 -0.77 0 0 1.38 -1.41 0 0 -1.38 -0.77 0 0 3.48zm4.59 0l0.76 0 0 -2.77 1.06 0 0 -0.71 -2.88 0 0 0.71 1.06 0 0 2.77zm2.41 0l0.76 0 0 -1.05 0.59 0c0.78,0 1.4,-0.41 1.4,-1.22 0,-0.72 -0.5,-1.21 -1.33,-1.21l-1.42 0 0 3.48zm0.76 -1.73l0 -1.06 0.59 0c0.39,0 0.63,0.18 0.63,0.53 0,0.31 -0.23,0.53 -0.61,0.53l-0.61 0zm4.05 1.73l0.76 0 0 -1.05 0.58 0c0.78,0 1.41,-0.41 1.41,-1.22 0,-0.72 -0.5,-1.21 -1.33,-1.21l-1.42 0 0 3.48zm0.76 -1.73l0 -1.06 0.59 0c0.39,0 0.63,0.18 0.63,0.53 0,0.31 -0.23,0.53 -0.61,0.53l-0.61 0zm1.91 1.73l0.78 0 0.32 -0.78 1.47 0 0.32 0.78 0.8 0 -1.49 -3.51 -0.71 0 -1.49 3.51zm1.37 -1.46l0.46 -1.13 0.47 1.13 -0.93 0zm3.99 -2.08c-0.66,0 -1.08,0.23 -1.4,0.57l0.4 0.49c0.24,-0.24 0.51,-0.38 0.94,-0.38 0.33,0 0.56,0.14 0.56,0.38 0,0.27 -0.22,0.41 -0.62,0.41l-0.39 0 0 0.63 0.4 0c0.4,0 0.69,0.12 0.69,0.41 0,0.27 -0.26,0.42 -0.58,0.42 -0.46,0 -0.83,-0.17 -1.11,-0.45l-0.41 0.54c0.37,0.37 0.82,0.58 1.55,0.58 0.81,0 1.32,-0.45 1.32,-1.05 0,-0.44 -0.28,-0.7 -0.65,-0.82 0.3,-0.13 0.56,-0.36 0.56,-0.8 0,-0.54 -0.51,-0.93 -1.26,-0.93zm2.01 3.54l1.66 0c0.78,0 1.3,-0.32 1.3,-0.96 0,-0.47 -0.25,-0.71 -0.65,-0.86 0.25,-0.14 0.46,-0.36 0.46,-0.75 0,-0.25 -0.08,-0.44 -0.24,-0.6 -0.2,-0.2 -0.51,-0.31 -0.91,-0.31l-1.62 0 0 3.48zm0.75 -2.07l0 -0.74 0.75 0c0.33,0 0.51,0.13 0.51,0.36 0,0.27 -0.22,0.38 -0.56,0.38l-0.7 0zm0 1.4l0 -0.77 0.88 0c0.4,0 0.57,0.15 0.57,0.38 0,0.27 -0.2,0.39 -0.54,0.39l-0.91 0zm5.84 -2.81l-0.71 0 -1.53 2.28 0 -2.28 -0.76 0 0 3.48 0.72 0 1.52 -2.28 0 2.28 0.76 0 0 -3.48zm1.64 3.48l0.77 0 0 -2.77 1.05 0 0 -0.71 -2.88 0 0 0.71 1.06 0 0 2.77zm5.41 -3.48l-0.72 0 -1.53 2.28 0 -2.28 -0.75 0 0 3.48 0.72 0 1.52 -2.28 0 2.28 0.76 0 0 -3.48zm3.58 0l-1.59 0c-0.81,0 -1.31,0.43 -1.31,1.15 0,0.57 0.3,0.92 0.75,1.09l-0.85 1.24 0.89 0 0.75 -1.12 0.6 0 0 1.12 0.76 0 0 -3.48zm-1.54 1.69c-0.37,0 -0.58,-0.2 -0.58,-0.49 0,-0.34 0.22,-0.51 0.6,-0.51l0.76 0 0 1 -0.78 0z"/>
    <path class="fil15" d="M41.15 11.06l0.76 0 0 -2.79 1.37 0 0 2.79 0.77 0 0 -3.48 -2.9 0 0 3.48zm3.73 0l0.77 0 0 -1.04 0.58 0c0.78,0 1.4,-0.42 1.4,-1.23 0,-0.72 -0.5,-1.21 -1.33,-1.21l-1.42 0 0 3.48zm0.77 -1.72l0 -1.07 0.59 0c0.38,0 0.62,0.19 0.62,0.53 0,0.31 -0.23,0.54 -0.61,0.54l-0.6 0zm4.24 1.78c1.07,0 1.85,-0.81 1.85,-1.8 0,-1 -0.77,-1.8 -1.84,-1.8 -1.07,0 -1.85,0.81 -1.85,1.8 0,1 0.77,1.8 1.84,1.8zm0.01 -0.71c-0.62,0 -1.05,-0.49 -1.05,-1.09 0,-0.61 0.42,-1.09 1.04,-1.09 0.61,0 1.05,0.49 1.05,1.09 0,0.61 -0.43,1.09 -1.04,1.09zm4.8 -1.96c0.56,0 0.94,0.33 0.94,0.84 0,0.52 -0.38,0.85 -0.94,0.85l0 -1.69zm0 2.75l0 -0.38c1.08,0 1.73,-0.66 1.73,-1.54 0,-0.87 -0.66,-1.51 -1.73,-1.51l0 -0.32 -0.76 0 0 0.32c-1.07,0 -1.73,0.64 -1.73,1.51 0,0.88 0.65,1.54 1.73,1.54l0 0.38 0.76 0zm-0.76 -1.06c-0.56,0 -0.94,-0.33 -0.94,-0.85 0,-0.51 0.38,-0.84 0.94,-0.84l0 1.69zm3.11 0.92l2.65 0 0 -0.68 -1.89 0 0 -0.73 1.64 0 0 -0.68 -1.64 0 0 -0.71 1.87 0 0 -0.68 -2.63 0 0 3.48zm4.86 0.06c0.67,0 1.07,-0.21 1.43,-0.59l-0.49 -0.52c-0.27,0.24 -0.52,0.4 -0.91,0.4 -0.6,0 -1.01,-0.49 -1.01,-1.09 0,-0.61 0.42,-1.09 1.01,-1.09 0.39,0 0.62,0.14 0.89,0.38l0.46 -0.52c-0.33,-0.32 -0.69,-0.57 -1.35,-0.57 -1.07,0 -1.81,0.81 -1.81,1.8 0,1.01 0.76,1.8 1.78,1.8zm3.57 0c0.67,0 1.07,-0.21 1.42,-0.59l-0.48 -0.52c-0.28,0.24 -0.52,0.4 -0.92,0.4 -0.59,0 -1,-0.49 -1,-1.09 0,-0.61 0.42,-1.09 1,-1.09 0.4,0 0.63,0.14 0.9,0.38l0.46 -0.52c-0.33,-0.32 -0.7,-0.57 -1.35,-0.57 -1.07,0 -1.81,0.81 -1.81,1.8 0,1.01 0.76,1.8 1.78,1.8zm5.03 -3.54l-0.71 0 -1.53 2.28 0 -2.28 -0.75 0 0 3.48 0.72 0 1.52 -2.28 0 2.28 0.75 0 0 -3.48zm2.53 3.54c1.07,0 1.85,-0.81 1.85,-1.8 0,-1 -0.77,-1.8 -1.84,-1.8 -1.08,0 -1.86,0.81 -1.86,1.8 0,1 0.77,1.8 1.85,1.8zm0.01 -0.71c-0.62,0 -1.06,-0.49 -1.06,-1.09 0,-0.61 0.43,-1.09 1.05,-1.09 0.61,0 1.05,0.49 1.05,1.09 0,0.61 -0.43,1.09 -1.04,1.09zm2.52 0.65l0.76 0 0 -1.4 1.42 0 0 1.4 0.76 0 0 -3.48 -0.76 0 0 1.38 -1.42 0 0 -1.38 -0.76 0 0 3.48zm3.48 0l0.78 0 0.31 -0.78 1.48 0 0.31 0.78 0.8 0 -1.49 -3.5 -0.7 0 -1.49 3.5zm1.37 -1.46l0.46 -1.12 0.46 1.12 -0.92 0zm3.31 -2.02l0 0.72c0,1.87 -0.23,2.14 -0.64,2.14 -0.05,0 -0.09,-0.01 -0.12,-0.01l-0.05 0.63c0.09,0.02 0.28,0.04 0.4,0.04 0.79,0 1.13,-0.52 1.13,-2.56l0 -0.27 1 0 0 2.79 0.77 0 0 -3.48 -2.49 0zm3.32 3.48l1.46 0c0.81,0 1.32,-0.45 1.32,-1.17 0,-0.68 -0.47,-1.13 -1.27,-1.13l-0.74 0 0 -1.18 -0.77 0 0 3.48zm1.44 -1.64c0.38,0 0.58,0.17 0.58,0.46 0,0.32 -0.2,0.49 -0.57,0.49l-0.68 0 0 -0.95 0.67 0zm1.92 1.64l0.77 0 0 -1.4 1.41 0 0 1.4 0.77 0 0 -3.48 -0.77 0 0 1.38 -1.41 0 0 -1.38 -0.77 0 0 3.48zm3.78 0l1.46 0c0.81,0 1.32,-0.45 1.32,-1.17 0,-0.68 -0.47,-1.13 -1.28,-1.13l-0.74 0 0 -1.18 -0.76 0 0 3.48zm1.44 -1.64c0.38,0 0.58,0.17 0.58,0.46 0,0.32 -0.2,0.49 -0.57,0.49l-0.69 0 0 -0.95 0.68 0zm1.72 1.64l0.77 0 0 -3.48 -0.77 0 0 3.48zm1.34 0l0.87 0 0.79 -1.19 0.78 1.19 0.89 0 -1.21 -1.78 1.16 -1.7 -0.87 0 -0.73 1.13 -0.74 -1.13 -0.89 0 1.16 1.71 -1.21 1.77z"/>
    <path class="fil15" d="M41.15 17.02l0.76 0 0 -1.06 0.4 -0.42 1.08 1.48 0.92 0 -1.48 -2 1.42 -1.48 -0.93 0 -1.41 1.52 0 -1.52 -0.76 0 0 3.48zm5.06 0.06c1.08,0 1.86,-0.81 1.86,-1.8 0,-1 -0.77,-1.8 -1.85,-1.8 -1.07,0 -1.85,0.81 -1.85,1.8 0,1 0.77,1.8 1.84,1.8zm0.01 -0.7c-0.61,0 -1.05,-0.5 -1.05,-1.1 0,-0.6 0.43,-1.09 1.04,-1.09 0.62,0 1.06,0.5 1.06,1.09 0,0.61 -0.43,1.1 -1.05,1.1zm2.53 0.64l0.75 0 0 -2.25 0.96 1.47 0.02 0 0.98 -1.49 0 2.27 0.76 0 0 -3.48 -0.82 0 -0.92 1.47 -0.91 -1.47 -0.82 0 0 3.48zm4.31 0l0.76 0 0 -2.79 1.37 0 0 2.79 0.77 0 0 -3.48 -2.9 0 0 3.48zm3.73 0l2.65 0 0 -0.68 -1.89 0 0 -0.73 1.64 0 0 -0.68 -1.64 0 0 -0.71 1.87 0 0 -0.68 -2.63 0 0 3.48zm4.14 0l0.77 0 0 -2.77 1.06 0 0 -0.71 -2.88 0 0 0.71 1.05 0 0 2.77zm2.41 0l2.65 0 0 -0.68 -1.89 0 0 -0.73 1.64 0 0 -0.68 -1.64 0 0 -0.71 1.87 0 0 -0.68 -2.63 0 0 3.48zm3.33 0l0.77 0 0 -1.39 1.41 0 0 1.39 0.76 0 0 -3.48 -0.76 0 0 1.38 -1.41 0 0 -1.38 -0.77 0 0 3.48zm6.36 0.73l0.63 0 0.1 -1.42 -0.41 0 0 -2.79 -0.77 0 0 2.79 -1.37 0 0 -2.79 -0.76 0 0 3.48 2.58 0 0 0.73zm4.26 -4.21l-0.71 0 -1.53 2.28 0 -2.28 -0.75 0 0 3.48 0.72 0 1.52 -2.28 0 2.28 0.75 0 0 -3.48zm3.83 0l-0.71 0 -1.53 2.28 0 -2.28 -0.75 0 0 3.48 0.72 0 1.52 -2.28 0 2.28 0.75 0 0 -3.48zm-1.48 -0.26c0.46,0 0.76,-0.28 0.83,-0.75l-0.44 -0.08c-0.06,0.2 -0.18,0.33 -0.39,0.33 -0.21,0 -0.33,-0.13 -0.39,-0.33l-0.45 0.08c0.07,0.47 0.38,0.75 0.84,0.75z"/>
   </g>
  </g>
 </g>
</svg>
