<svg width="200px"  height="200px"  xmlns="http://www.w3.org/2000/svg" viewBox="0 0 100 100" preserveAspectRatio="xMidYMid" class="lds-wedges" style="background: none; shape-rendering: auto;"><g transform="translate(50,50)" class=""><g ng-attr-transform="scale({{config.scale}})" transform="scale(0.9)" class=""><g transform="translate(-50,-50)" class=""><g class="" transform="rotate(119.894 50 50)"><animateTransform attributeName="transform" type="rotate" calcMode="linear" values="0 50 50;360 50 50" keyTimes="0;1" dur="1.25s" begin="0s" repeatCount="indefinite" class=""></animateTransform><path ng-attr-fill-opacity="{{config.opacity}}" ng-attr-fill="{{config.c1}}" d="M50 50L50 0A50 50 0 0 1 100 50Z" fill-opacity="1" fill="#f7b82b" class=""></path></g><g class="" transform="rotate(179.921 50 50)"><animateTransform attributeName="transform" type="rotate" calcMode="linear" values="0 50 50;360 50 50" keyTimes="0;1" dur="1.6666666666666667s" begin="0s" repeatCount="indefinite" class=""></animateTransform><path ng-attr-fill-opacity="{{config.opacity}}" ng-attr-fill="{{config.c2}}" d="M50 50L50 0A50 50 0 0 1 100 50Z" transform="rotate(90 50 50)" fill-opacity="1" fill="#d4505e" class=""></path></g><g class="" transform="rotate(239.947 50 50)"><animateTransform attributeName="transform" type="rotate" calcMode="linear" values="0 50 50;360 50 50" keyTimes="0;1" dur="2.5s" begin="0s" repeatCount="indefinite" class=""></animateTransform><path ng-attr-fill-opacity="{{config.opacity}}" ng-attr-fill="{{config.c3}}" d="M50 50L50 0A50 50 0 0 1 100 50Z" transform="rotate(180 50 50)" fill-opacity="1" fill="#803660" class=""></path></g><g class="" transform="rotate(299.974 50 50)"><animateTransform attributeName="transform" type="rotate" calcMode="linear" values="0 50 50;360 50 50" keyTimes="0;1" dur="5s" begin="0s" repeatCount="indefinite" class=""></animateTransform><path ng-attr-fill-opacity="{{config.opacity}}" ng-attr-fill="{{config.c4}}" d="M50 50L50 0A50 50 0 0 1 100 50Z" transform="rotate(270 50 50)" fill-opacity="1" fill="#562b72" class=""></path></g></g></g></g></svg>