<?xml version="1.0" encoding="UTF-8"?>
<!DOCTYPE svg PUBLIC "-//W3C//DTD SVG 1.1//EN" "http://www.w3.org/Graphics/SVG/1.1/DTD/svg11.dtd">
<!-- Creator: CorelDRAW 2019 (64-Bit) -->
<svg xmlns="http://www.w3.org/2000/svg" xml:space="preserve" width="121.805mm" height="45.4415mm" version="1.1" style="shape-rendering:geometricPrecision; text-rendering:geometricPrecision; image-rendering:optimizeQuality; fill-rule:evenodd; clip-rule:evenodd"
viewBox="0 0 12166.22 4538.83"
 xmlns:xlink="http://www.w3.org/1999/xlink"
 xmlns:xodm="http://www.corel.com/coreldraw/odm/2003">
 <defs>
  <style type="text/css">
   <![CDATA[
    .fil1 {fill:#53599C;fill-rule:nonzero}
    .fil0 {fill:#C35268;fill-rule:nonzero}
   ]]>
  </style>
 </defs>
 <g id="Слой_x0020_1">
  <metadata id="CorelCorpID_0Corel-Layer"/>
  <g id="_2095306057808">
   <path class="fil0" d="M2291.87 695.76c2.44,10.32 3.65,20.03 3.65,27.93 0,34.6 -21.25,57.67 -63.75,69.21 -2.43,1.21 -43.11,7.89 -122.64,19.43 -209.45,29.75 -424.98,54.04 -645.98,72.85 -93.49,200.35 -208.24,525.76 -344.24,975.64 -125.67,410.42 -217.95,753.44 -276.85,1029.07 -20.04,89.25 -49.78,133.56 -88.64,133.56 -24.89,0 -75.28,-13.35 -151.17,-39.46 -27.32,-7.89 -41.89,-24.28 -44.32,-47.96 2.43,23.68 3.64,-12.14 3.64,-108.67 0,-174.85 27.93,-333.92 83.18,-477.8 21.25,-53.43 44.93,-80.15 71.03,-80.15 7.29,0 21.26,2.44 41.89,7.9 20.65,5.46 37.65,9.1 50.39,10.32 32.18,-120.82 107.46,-360.02 227.06,-717.01 134.78,-403.13 208.25,-624.73 220.39,-663.58 -183.36,13.96 -366.1,42.5 -548.84,85.6 -202.78,49.79 -335.74,102.61 -398.88,157.86 -71.04,64.35 -106.85,127.5 -106.85,190.64 0,67.39 39.46,173.03 118.39,316.31 8.5,15.78 12.75,29.75 12.75,43.11 0,29.75 -13.96,44.32 -41.28,44.32 -18.82,0 -35.82,-11.54 -51.6,-34 -93.5,-133.56 -154.82,-237.99 -183.36,-312.66 -20.04,-52.22 -34.61,-127.5 -43.11,-226.45 -12.75,-144.5 106.26,-251.36 357.6,-319.96 327.24,-89.25 656.9,-148.14 990.21,-177.89 37.65,-75.28 65.57,-112.92 83.17,-112.92 27.33,0 73.46,29.14 139.04,87.42 30.96,0 126.28,-12.14 285.95,-35.82 28.53,-4.25 57.67,-25.5 87.42,-61.93 26.11,-34.6 88.04,-54.03 186.39,-58.89 53.43,-2.43 90.46,17.61 110.49,60.11 3.65,6.07 16.4,54.04 38.85,143.89z"/>
   <path id="1" class="fil0" d="M2790.93 2458.84c-288.99,369.13 -491.76,553.69 -609.55,553.69 -55.85,0 -126.28,-38.85 -211.89,-115.95 -89.25,-41.9 -133.56,-97.76 -133.56,-167.57 0,-13.35 1.22,-26.71 3.65,-41.28 21.25,-162.71 64.96,-343.02 131.14,-540.34 -43.71,-22.46 -65.57,-44.32 -65.57,-64.35 0,-16.39 12.15,-24.89 37.04,-24.89 19.43,0 38.85,5.46 58.89,16.39 105.04,-236.17 199.75,-404.34 283.53,-503.91 54.64,-66.17 103.21,-98.96 146.92,-98.96 20.04,0 69.82,17 149.36,51.61 -6.07,-35.82 4.26,-56.46 30.35,-62.54 1.22,0 29.15,0 83.78,0 51.61,0 77.11,9.11 77.11,26.72 0,3.64 -1.83,13.35 -5.46,30.35 -3.65,16.39 -5.46,32.17 -5.46,46.14 0,42.5 0.6,95.32 1.82,158.46 1.22,62.54 1.82,105.03 1.82,126.28 0,146.92 -40.06,249.53 -120.82,307.81 -73.45,53.43 -156.64,80.14 -248.92,80.14 -48.56,0 -128.71,-13.35 -241.63,-39.46 -20.04,36.43 -42.5,108.07 -67.39,214.93 -33.39,134.77 -48.57,254.38 -46.15,358.8 1.22,61.32 20.65,92.28 58.89,92.28 13.96,0 32.18,-3.64 55.25,-10.93 137.21,-47.96 329.06,-196.1 574.34,-443.19 15.79,-15.18 30.96,-23.07 46.15,-23.07 22.46,0 34,10.93 34,32.17 0,12.76 -6.07,26.72 -17.61,40.68zm-208.25 -786.83c0,-46.15 -10.32,-69.21 -30.35,-69.21 -12.75,0 -32.17,9.71 -57.06,28.53 -116.57,93.5 -218.56,258.03 -306.6,492.38 23.68,3.64 64.96,7.28 124.46,10.93 95.92,3.64 167.56,-18.22 214.92,-65.57 35.21,-35.82 54.64,-94.71 58.28,-176.06 -2.43,60.1 -3.65,-13.35 -3.65,-220.99z"/>
   <path id="2" class="fil0" d="M4513.94 3157.02c-110.5,170.61 -199.75,256.21 -267.14,256.21 -83.17,0 -202.17,-111.71 -356.98,-334.53 -154.82,-223.42 -287.77,-473.55 -397.66,-751 -141.46,174.85 -239.21,379.45 -293.85,613.79 -13.36,52.22 -28.54,78.32 -46.15,78.32 -7.28,0 -21.25,-4.25 -43.1,-12.75 -98.35,-42.5 -147.54,-85.6 -147.54,-129.32 0,-6.07 7.29,-46.14 21.26,-119.6 136.6,-753.44 314.48,-1396.98 534.26,-1930.65 163.92,-398.87 311.46,-658.72 443.2,-779.54 33.39,-32.18 66.17,-47.96 98.34,-47.96 32.79,0 75.89,19.43 128.11,58.89 58.89,48.57 118.38,97.75 177.88,146.32 16.39,12.14 24.89,25.5 24.89,39.46 0,21.25 -13.35,32.17 -40.67,32.17 -13.35,0 -26.11,-3.65 -39.46,-10.32 -54.65,-27.32 -95.32,-40.68 -122.64,-40.68 -74.68,0 -156.64,72.26 -245.28,216.75 -319.35,520.3 -548.84,1198.46 -688.47,2035.07 28.54,-58.28 92.89,-168.78 194.28,-332.7 -12.76,-41.28 -19.43,-66.17 -19.43,-72.85 0,-28.54 40.06,-50.39 120.21,-66.17 160.28,-234.95 291.42,-392.81 394.02,-473.56 36.43,-28.54 64.96,-42.5 85,-42.5 20.04,0 57.06,29.14 111.1,87.43 85,34 127.5,76.49 127.5,127.49 0,17 -2.44,38.25 -7.29,64.35 -22.46,98.35 -54.04,184.56 -95.93,259.25 -21.25,39.45 -43.71,58.89 -67.39,58.89 -16.39,0 -42.49,-6.68 -77.71,-19.44 -67.39,-23.67 -101.39,-48.56 -101.39,-73.45 0,-15.18 10.94,-27.33 32.18,-35.82 49.17,-42.5 80.14,-126.89 91.67,-253.17 2.43,-29.75 -5.46,-44.32 -23.07,-44.32 -10.32,0 -24.28,6.67 -41.89,19.43 -129.92,95.32 -241.03,233.74 -333.91,414.66 180.31,558.55 386.13,908.25 616.23,1049.1 28.53,16.39 57.67,24.89 87.42,24.89 42.5,0 75.28,-12.75 97.75,-38.25 22.46,-25.5 43.11,-38.26 60.72,-38.26 16.39,0 24.89,9.11 24.89,26.72 0,10.93 -4.85,23.07 -13.96,37.64z"/>
   <path id="3" class="fil0" d="M5762.18 205.82c15.17,12.14 23.06,24.28 23.06,37.03 0,22.46 -13.35,34 -40.67,34 -12.15,0 -24.28,-3.65 -37.65,-10.32 -54.64,-27.32 -95.32,-40.68 -122.64,-40.68 -74.67,0 -156.64,72.26 -245.88,216.75 -322.38,525.15 -551.87,1203.31 -688.47,2035.07 -3.65,23.07 -9.72,52.82 -17.61,91.07 27.32,-28.54 67.39,-74.68 120.82,-138.43 30.96,-37.04 53.43,-55.25 68,-55.25 30.96,0 32.78,18.21 6.67,55.25 -113.53,162.1 -189.42,331.49 -225.85,509.37 -13.35,43.71 -29.75,65.57 -49.78,65.57 -9.72,0 -22.46,-5.46 -37.65,-15.79 -60.71,-40.67 -95.32,-64.35 -103.21,-71.03 -23.67,-23.68 -35.82,-54.65 -35.82,-92.89 0,-18.82 3.04,-41.89 9.11,-69.21 137.21,-754.66 315.09,-1397.59 531.84,-1928.22 163.92,-400.7 310.24,-659.94 439.56,-778.33 35.82,-33.39 71.64,-49.17 106.85,-47.96 32.17,1.22 74.06,21.26 125.06,60.11 57.67,47.35 115.96,95.32 174.25,143.89z"/>
   <path id="4" class="fil0" d="M6339.55 1733.94c-165.14,760.11 -319.96,1328.37 -464.45,1705.4 -279.88,732.79 -601.67,1099.49 -964.72,1099.49 -212.49,0 -440.76,-115.35 -684.83,-345.46 -21.26,-20.03 -32.18,-41.28 -32.18,-63.75 0,-35.82 16.39,-53.43 49.78,-53.43 16.4,0 32.79,6.68 47.96,19.43 193.67,164.53 366.1,246.49 517.87,246.49 278.67,0 531.84,-232.53 759.51,-696.97 179.1,-364.27 335.13,-852.39 468.09,-1465.58 8.5,-43.72 21.85,-111.11 40.67,-200.96 -124.45,202.78 -263.49,401.92 -417.69,598.63 -148.75,190.03 -265.32,319.95 -350.92,390.98 -47.35,39.46 -85,58.89 -113.54,58.89 -22.46,0 -46.14,-12.76 -69.82,-37.65 -24.89,-31.56 -50.39,-63.14 -76.49,-94.1 -11.54,-13.96 -17.61,-27.32 -17.61,-39.46 0,-0.61 0,-1.82 0,-3.04 2.43,-14.57 12.75,-24.28 32.17,-30.35 56.46,-77.11 109.89,-244.06 159.67,-500.26 37.65,-202.17 63.76,-393.42 77.72,-574.95 2.43,-43.11 -3.04,-64.35 -15.79,-64.35 -3.64,0 -31.56,21.85 -83.17,64.96 -82.56,71.03 -127.49,106.25 -134.78,106.25 -16.39,0 -24.89,-8.5 -24.89,-24.89 0,-8.5 3.65,-17 10.93,-24.89 20.04,-25.5 64.35,-88.04 134.17,-187.6 62.54,-89.26 104.43,-134.17 125.67,-134.17 16.4,0 38.85,7.28 67.39,21.85 60.11,-9.72 93.5,-14.57 100.78,-14.57 40.07,0 60.11,30.96 60.11,92.28 0,103.21 -29.76,305.38 -88.65,605.91 -58.88,301.13 -106.84,495.41 -144.49,582.83 118.39,-93.49 273.21,-277.45 463.24,-551.26 185.17,-267.13 300.52,-468.09 345.45,-603.47 2.43,-79.54 19.43,-119 51.61,-119 24.89,0 71.64,25.5 139.03,76.5 38.26,28.54 48.57,81.96 32.18,160.28z"/>
   <path class="fil1" d="M6826.39 2315.87l0 163.67 77.02 0 0 109.4 -77.02 0 0 218.81 77.02 0 0 109.4 -147.04 0c-11.67,0 -21.88,-4.24 -30.63,-12.7 -8.75,-8.46 -13.12,-18.52 -13.12,-30.19l0 -285.33 -54.27 0 0 -109.4 54.27 0 0 -163.67 113.78 0z"/>
   <path id="1" class="fil1" d="M6990.94 2523.29c0,-12.25 4.24,-22.6 12.7,-31.06 8.46,-8.46 18.82,-12.7 31.06,-12.7l354.47 0c11.67,0 21.73,4.24 30.19,12.7 8.46,8.46 12.7,18.82 12.7,31.06l0 186.43c0,11.67 -4.24,21.87 -12.7,30.63 -8.46,8.75 -18.82,13.12 -31.07,13.12l-284.45 0 0 54.27 328.22 0 0 109.4 -397.36 0c-12.25,0 -22.6,-4.24 -31.06,-12.7 -8.46,-8.46 -12.7,-18.82 -12.7,-31.06l0 -350.1zm112.91 65.64l0 55.15 215.31 0 0 -55.15 -215.31 0z"/>
   <path id="2" class="fil1" d="M7537.09 2523.29c0,-12.25 4.24,-22.6 12.7,-31.06 8.46,-8.46 18.82,-12.7 31.06,-12.7l353.6 0c12.26,0 22.61,4.24 31.07,12.7 8.46,8.46 12.7,18.82 12.7,31.06l0 92.78 -112.91 0 0 -27.14 -215.31 0 0 218.81 215.31 0 0 -27.14 112.91 0 0 92.78c0,12.25 -4.24,22.6 -12.7,31.06 -8.46,8.46 -18.82,12.7 -31.07,12.7l-353.6 0c-12.25,0 -22.6,-4.24 -31.06,-12.7 -8.46,-8.46 -12.7,-18.82 -12.7,-31.06l0 -350.1z"/>
   <path id="3" class="fil1" d="M8196.15 2917.15l-112.91 0 0 -601.29 112.91 0 0 207.43c0,-11.67 4.37,-21.87 13.12,-30.63 8.75,-8.75 18.97,-13.12 30.63,-13.12l203.93 0c12.26,0 22.61,4.37 31.07,13.12 8.46,8.76 12.69,18.97 12.69,30.63l0 393.86 -112.91 0 0 -328.22 -134.78 0c-11.67,0 -21.88,4.24 -30.63,12.7 -8.75,8.46 -13.12,18.82 -13.12,31.07l0 284.45z"/>
   <path id="4" class="fil1" d="M8705.53 2917.15l-112.91 0 0 -437.62 112.91 0 0 43.76c0,-11.67 4.37,-21.87 13.12,-30.63 8.75,-8.75 18.97,-13.12 30.63,-13.12l203.93 0c12.26,0 22.61,4.37 31.07,13.12 8.46,8.76 12.69,18.97 12.69,30.63l0 393.86 -112.91 0 0 -328.22 -134.78 0c-11.67,0 -21.88,4.24 -30.63,12.7 -8.75,8.46 -13.12,18.82 -13.12,31.07l0 284.45z"/>
   <path id="5" class="fil1" d="M9430.22 2588.94l-215.31 0 0 218.81 215.31 0 0 -218.81zm112.91 284.46c0,12.25 -4.24,22.6 -12.7,31.06 -8.46,8.46 -18.82,12.7 -31.07,12.7l-353.6 0c-12.25,0 -22.6,-4.24 -31.06,-12.7 -8.46,-8.46 -12.7,-18.82 -12.7,-31.06l0 -349.22c0,-12.26 4.24,-22.75 12.7,-31.51 8.46,-8.75 18.82,-13.12 31.06,-13.12l353.6 0c12.26,0 22.61,4.37 31.07,13.12 8.46,8.76 12.7,18.97 12.7,30.63l0 350.1z"/>
   <path id="6" class="fil1" d="M9761.06 2315.87l0 491.88 39.38 0 0 109.4 -108.53 0c-12.25,0 -22.6,-4.24 -31.06,-12.7 -8.46,-8.46 -12.7,-18.52 -12.7,-30.19l0 -558.4 112.91 0z"/>
   <path id="7" class="fil1" d="M10233.69 2588.94l-215.31 0 0 218.81 215.31 0 0 -218.81zm112.91 284.46c0,12.25 -4.24,22.6 -12.7,31.06 -8.46,8.46 -18.82,12.7 -31.07,12.7l-353.6 0c-12.25,0 -22.6,-4.24 -31.06,-12.7 -8.46,-8.46 -12.7,-18.82 -12.7,-31.06l0 -349.22c0,-12.26 4.24,-22.75 12.7,-31.51 8.46,-8.75 18.82,-13.12 31.06,-13.12l353.6 0c12.26,0 22.61,4.37 31.07,13.12 8.46,8.76 12.7,18.97 12.7,30.63l0 350.1z"/>
   <path id="8" class="fil1" d="M10698.45 2807.75c12.25,0 22.75,-4.37 31.5,-13.13 8.75,-8.75 13.12,-18.96 13.12,-30.63l0 -175.04 -178.54 0 0 218.81 133.91 0zm-204.81 273.07c-11.67,0 -21.58,-4.23 -29.76,-12.7 -8.17,-8.46 -12.26,-18.81 -12.26,-31.06l0 -92.78 112.91 0 0 27.14 178.54 0 0 -98.03c0,11.67 -4.37,21.87 -13.12,30.63 -8.75,8.75 -18.96,13.12 -30.63,13.12l-203.93 0c-12.25,0 -22.6,-4.37 -31.06,-13.12 -8.46,-8.76 -12.7,-18.97 -12.7,-30.63l0 -350.1c0,-11.67 4.24,-21.87 12.7,-30.63 8.46,-8.75 18.82,-13.12 31.06,-13.12l203.93 0c11.68,0 21.88,4.24 30.63,12.7 8.75,8.46 13.12,18.82 13.12,31.06l0 -43.76 112.91 0 0 557.53c0,12.26 -4.37,22.6 -13.12,31.06 -8.75,8.47 -18.97,12.7 -30.63,12.7l-318.59 0z"/>
   <path id="9" class="fil1" d="M10961.01 2326.36c0,-7 3.51,-10.5 10.51,-10.5l91.89 0c7,0 10.51,3.5 10.51,10.5l0 88.41c0,7 -3.51,10.5 -10.51,10.5l-91.89 0c-7,0 -10.51,-3.5 -10.51,-10.5l0 -88.41zm112.91 590.79l-112.91 0 0 -437.62 112.91 0 0 437.62z"/>
   <path id="10" class="fil1" d="M11178.94 2523.29c0,-12.25 4.24,-22.6 12.7,-31.06 8.46,-8.46 18.82,-12.7 31.06,-12.7l354.47 0c11.67,0 21.73,4.24 30.19,12.7 8.46,8.46 12.7,18.82 12.7,31.06l0 186.43c0,11.67 -4.24,21.87 -12.7,30.63 -8.46,8.75 -18.82,13.12 -31.07,13.12l-284.45 0 0 54.27 328.22 0 0 109.4 -397.36 0c-12.25,0 -22.6,-4.24 -31.06,-12.7 -8.46,-8.46 -12.7,-18.82 -12.7,-31.06l0 -350.1zm112.91 65.64l0 55.15 215.31 0 0 -55.15 -215.31 0z"/>
   <path id="11" class="fil1" d="M11768.85 2917.15c-12.25,0 -22.6,-4.24 -31.06,-12.7 -8.46,-8.46 -12.7,-18.82 -12.7,-31.06l0 -92.78 112.91 0 0 27.14 215.31 0 0 -54.27 -284.46 0c-12.25,0 -22.6,-4.37 -31.06,-13.12 -8.46,-8.76 -12.7,-18.97 -12.7,-30.63l0 -186.43c0,-11.67 4.24,-21.87 12.7,-30.63 8.46,-8.75 18.82,-13.12 31.06,-13.12l69.15 0 284.45 0c12.26,0 22.61,4.37 31.07,13.12 8.46,8.76 12.7,18.97 12.7,30.63l0 93.65 -112.91 0 0 -28.01 -215.31 0 0 55.15 284.45 0c12.26,0 22.61,4.23 31.07,12.69 8.46,8.46 12.7,18.53 12.7,30.19l0 187.3c0,11.68 -4.24,21.73 -12.7,30.19 -8.46,8.46 -18.82,12.7 -31.07,12.7l-353.6 0z"/>
  </g>
 </g>
</svg>
